<svg xmlns="http://www.w3.org/2000/svg" width="520.344" height="84.976" viewBox="0 0 520.344 84.976">
  <g id="グループ_40" data-name="グループ 40" transform="translate(769.228 -274.112)">
    <path id="パス_15" data-name="パス 15" d="M32.328-16.452v-4.176H21.456c.036-1.872.072-4.032.072-4.1,0-1.476,0-1.656.072-1.764.144-.216,1.008-.864,1.008-1.044,0-.36-.576-.468-1.08-.54L16.7-28.656a52.874,52.874,0,0,1,.324,8.028H3.672v4.176H16.74C15.66-8.352,12.852-5.292,5.976-1.98L9.648,1.584c7.776-4.572,10.476-8.46,11.52-18.036ZM72.756-27.324a25.747,25.747,0,0,0-3.312-3.564l-1.836,1.8a25.368,25.368,0,0,1,3.276,3.528Zm-3.78,2.2a30.839,30.839,0,0,0-3.312-3.564l-1.836,1.764A27.868,27.868,0,0,1,67.1-23.364Zm.18,13.428-.576-4L58.068-14.328,57.276-18.9l7.848-1.008-.576-3.852-7.956,1.044L55.8-27.432c-.036-.144.108-.288.216-.36.324-.288.4-.36.4-.54,0-.5-.576-.5-1.3-.468l-3.672.144,1.08,6.444L43.92-21.1l.576,3.852,8.676-1.116.792,4.572L42.372-12.276l.54,3.96,11.7-1.512,1.98,11.52,4.14-.72-1.98-11.34Zm38.2-4.9v-4.1H101.3v-5.436c.072-.18.144-.252.4-.468.216-.18.324-.288.324-.432,0-.432-.828-.54-1.116-.576l-3.708-.5c.072,2.268.072,4.68.072,7.416h-6.8v-5.04c0-.18.072-.252.468-.54.216-.144.288-.216.288-.36,0-.36-.252-.4-1.08-.5l-3.96-.432V-20.7h-6.66v4.1h6.66v8.244h4.284V-16.6h6.8c-.144,8.064-2.2,11.736-8.712,15.3l2.952,2.808c6.984-4.248,9.36-7.848,9.756-18.108Zm41.112-9.9a28.637,28.637,0,0,0-3.492-3.528L143.136-28.3a27.085,27.085,0,0,1,3.42,3.6Zm-4.356,1.836a24.806,24.806,0,0,0-3.348-3.384l-1.872,1.836a27.71,27.71,0,0,1,3.384,3.42Zm-.576,3.276H133.02c.216-2.232.288-3.348.324-4.608.036-.468,0-.5.288-.72.5-.4.5-.4.5-.54,0-.432-.684-.54-.828-.54l-4.428-.5c-.036,2.844-.072,4.464-.288,6.912h-9.72v4h9.18c-1.656,7.812-5,11.412-10.692,15.048L120.888.432c5-3.2,9.36-7.416,11.556-17.82h6.66c-.144,7.92-1.476,11.268-2.088,12.276a2.349,2.349,0,0,1-2.16,1.152,20.037,20.037,0,0,1-3.6-.432l1.8,4.68c3.888,0,6.444-.216,7.884-3.6C143.352-8.892,143.5-18.216,143.532-21.384ZM182.592-4.32a71.954,71.954,0,0,0-9.54-8.892,43.484,43.484,0,0,0,4.176-8.064,4.987,4.987,0,0,1,1.944-2.16L176.4-26.5a3.413,3.413,0,0,1-1.872.792H159.012v4.176h13.716a28.776,28.776,0,0,1-6.12,9.828,31.926,31.926,0,0,1-11.484,7.776l3.168,3.276A34.751,34.751,0,0,0,170.6-9.9a56.779,56.779,0,0,1,8.784,9ZM219.42-22.9l-3.564-3.24a2.052,2.052,0,0,1-1.188.576h-20.34v4.212H213.48c-3.708,10.872-10.116,15.516-16.344,18.432L201.06.252a31.332,31.332,0,0,0,9.864-7.884c3.888-4.716,5.616-9.252,7.236-13.464A4.33,4.33,0,0,1,219.42-22.9Zm33.408,3.276c0-.144-.108-.252-.252-.36l-2.88-2.412A34.9,34.9,0,0,1,241.7-14.9a35.045,35.045,0,0,1-8.5,4.752l2.34,2.88a43,43,0,0,0,7.308-4.212V1.368h3.708V-14.256a34.772,34.772,0,0,0,4.9-4.716C251.748-19.008,252.828-19.116,252.828-19.62ZM283.644-14.8a21.616,21.616,0,0,0-2.448-5.832l-3.2,1.224a22.951,22.951,0,0,1,2.556,5.832Zm9.468-3.852c0-.252-.252-.5-.72-.648l-3.528-1.08C287.5-10.188,282.6-5.256,275.616-1.8L278.5.756c3.456-2.016,10.728-6.228,13.428-17.28.36-1.4.4-1.548.72-1.728C293.04-18.4,293.112-18.432,293.112-18.648Zm-15.84,5.58a23.085,23.085,0,0,0-2.772-5.8l-3.312,1.26a22.449,22.449,0,0,1,2.736,5.8Zm51.3-10.368v-3.888H311.148v3.888Zm4.86,8.928v-3.708h-27.18v3.708h12.1c-.18,7.02-2.412,10.476-9.612,13.068l3.528,2.952a16.786,16.786,0,0,0,7.992-6.7,18.486,18.486,0,0,0,2.268-9.324Zm32.58-5.112c0-.144-.108-.252-.252-.36l-2.88-2.412a34.9,34.9,0,0,1-7.992,7.488,35.045,35.045,0,0,1-8.5,4.752l2.34,2.88a43,43,0,0,0,7.308-4.212V1.368h3.708V-14.256a34.772,34.772,0,0,0,4.9-4.716C364.932-19.008,366.012-19.116,366.012-19.62Zm26.352-2.916A33.578,33.578,0,0,0,384.8-27l-2.2,3.384a32.53,32.53,0,0,1,7.38,4.536ZM409.5-18.792l-2.484-3.6a50.214,50.214,0,0,1-10.548,11.016,33.707,33.707,0,0,1-13.356,6.228l2.52,4.32c.252.468.576.684.792.684.288,0,.36-.612.54-1.116a48.411,48.411,0,0,0,13.572-8.028A50.614,50.614,0,0,0,409.5-18.792Zm39.2-8.28a15.478,15.478,0,0,0-3.2-3.492l-1.836,1.476a16.013,16.013,0,0,1,3.2,3.492Zm-5.148,0a14.358,14.358,0,0,0-3.1-2.988l-1.872,1.476A14.574,14.574,0,0,1,441.72-25.6Zm1.872,6.12L442.4-24.48a2.911,2.911,0,0,1-1.548.54h-8.064c.4-.576.828-1.512,1.224-1.98.612-.216.828-.288.828-.5,0-.324-.648-.612-.936-.756l-3.6-1.62a32.037,32.037,0,0,1-10.26,13.9l3.564,2.556a49.081,49.081,0,0,0,6.912-7.92h9.216a29.132,29.132,0,0,1-4.608,9.036,30.962,30.962,0,0,1-11.556,9.54l3.96,2.808A36.681,36.681,0,0,0,437.4-7.452a37.243,37.243,0,0,0,6.12-11.376A5.176,5.176,0,0,1,445.428-20.952ZM484.416-4.32a71.953,71.953,0,0,0-9.54-8.892,43.485,43.485,0,0,0,4.176-8.064A4.987,4.987,0,0,1,481-23.436l-2.772-3.06a3.413,3.413,0,0,1-1.872.792H460.836v4.176h13.716a28.776,28.776,0,0,1-6.12,9.828,31.926,31.926,0,0,1-11.484,7.776l3.168,3.276A34.751,34.751,0,0,0,472.428-9.9a56.778,56.778,0,0,1,8.784,9Zm38.7-9.432c0-8.028-5.9-13.1-13.392-13.1a15.527,15.527,0,0,0-15.876,15.264c0,6.444,5.9,9.684,7.2,9.684,1.872,0,3.528-3.024,4.608-5.256,1.188-2.412,3.312-7.452,4.464-16.02a9.21,9.21,0,0,1,6.12,2.412,8.487,8.487,0,0,1,2.592,6.3,11.263,11.263,0,0,1-2.592,7.164,12.125,12.125,0,0,1-6.48,3.852L512.424.252a17.379,17.379,0,0,0,8.388-6.336A13.451,13.451,0,0,0,523.116-13.752Zm-17.28-8.784c-.72,5.616-3.816,15.012-5.688,15.012-.648,0-2.3-1.512-2.3-4.428a11.79,11.79,0,0,1,3.6-7.992A10.628,10.628,0,0,1,505.836-22.536ZM33.192,39.112V35.44H17.46c.324-.54,1.656-3.348,1.764-3.42.072-.036.576-.108.648-.144.18-.072.216-.18.216-.252,0-.288-.576-.54-.72-.648l-2.88-1.368h12.2v3.636h4v-7.2H20.232V24.892c0-.252.108-.36.576-.684a.558.558,0,0,0,.252-.432c0-.216-.252-.4-1.008-.432l-4.32-.216v2.916H3.564V33.1H7.488V29.608h8.064a36.155,36.155,0,0,1-2.7,5.832H2.772v3.672h7.92a44.854,44.854,0,0,1-4.176,5.652l4.1,1.728c.36-.468.432-.54,1.044-1.44a24.033,24.033,0,0,1,4.752,1.62c-2.628,1.8-7.02,3.1-12.744,3.384l1.98,3.636c8.712-.9,12.168-3.456,14.508-5.184a37.829,37.829,0,0,1,8.1,5.508l3.168-3.348a46.86,46.86,0,0,0-8.316-5.04,34.159,34.159,0,0,0,4.1-6.516Zm-10.62,0a21.11,21.11,0,0,1-3.06,4.968,36.221,36.221,0,0,0-6.048-1.836c1.188-1.908,1.3-2.088,1.908-3.132ZM61.848,27.376a32.791,32.791,0,0,0-8.5-4.752l-2.088,3.492a39.733,39.733,0,0,1,8.028,4.932ZM71.82,42.712a38.614,38.614,0,0,0-6.444-9.936l-3.6,2.052A43.345,43.345,0,0,1,67.9,44.8Zm-5,4.608L63,45.376c-.828,3.348-1.908,3.96-3.168,3.96H56.16a1.8,1.8,0,0,1-1.944-1.872V34a1.165,1.165,0,0,1,.5-.9c.288-.252.432-.432.432-.648,0-.324-.252-.4-.54-.432l-4.68-.54V49.264c0,2.7,1.3,3.96,4.176,3.96h7.668C64.584,53.224,65.7,51.136,66.816,47.32Zm-18-11.448a.534.534,0,0,0-.432-.5l-4.248-1.116a50.986,50.986,0,0,1-4.464,11.412l4.068,1.4A67.419,67.419,0,0,0,47.7,37.24c.144-.432.216-.468.792-.864A.626.626,0,0,0,48.816,35.872ZM109.476,48l-3.276-1.44a9,9,0,0,1-.432,2.412,2.118,2.118,0,0,1-1.944,1.332h-5.8c-1.44,0-1.944-.828-1.944-1.656v-8.5l2.232-.72v7.992h3.276V44.044l1.692,2.7c2.808-.5,4.5-1.368,4.5-3.744V34.216l-1.836-.936-4.356,1.3v-2.3c0-.108.072-.144.5-.468.36-.252.432-.4.432-.5,0-.36-.54-.432-.936-.432l-3.276-.108v4.824l-2.232.648V33.964c0-.108.036-.144.432-.36.4-.252.5-.324.5-.5,0-.4-.5-.432-.936-.468l-1.944-.18a19.97,19.97,0,0,0,1.836-2.808h13v-3.42H97.632c.108-.216.612-1.332.684-1.4.108-.072.612-.252.684-.324a.391.391,0,0,0,.252-.36c0-.252-.324-.4-.756-.5l-3.672-.864a19.145,19.145,0,0,1-3.636,7.416V27.52h-4V24.28c0-.108.216-.252.5-.468a.519.519,0,0,0,.252-.4c0-.36-.612-.432-.864-.468l-4.1-.324v4.9h-5v3.636H81.36c-.072,8.316-.54,15.48-4.644,20.808l3.528,1.692c3.492-4.644,4.248-12.528,4.536-15.588h2.556a51.081,51.081,0,0,1-.792,9.648c-.468,2.268-1.152,2.772-2.412,2.772a10.13,10.13,0,0,1-1.944-.252l1.764,3.852c2.124-.072,4.32-.324,5.292-3.24.756-2.376,1.152-9.9,1.332-12.708l.468,3.6,1.512-.5v8.712c0,2.52,1.3,3.708,4.1,3.708h7.848C108.936,53.656,109.26,50.236,109.476,48Zm-5.292-5.688A1.124,1.124,0,0,1,102.96,43.5a8.694,8.694,0,0,1-1.368-.144V38.428l2.592-.828Zm-11.628-5-2.016.612c.036-.792.072-2.16.072-3.348H85c.036-1.4.072-2.2.072-3.42h5.256a12.617,12.617,0,0,1-1.908,1.656l3.132,2.412a13.076,13.076,0,0,0,1.008-.972Zm53.892,13.824V47H133.38V29.356h10.872V25.324H118.116v4.032h10.836V47h-13.14v4.14Z" transform="translate(-772 305)" fill="#d95920"/>
    <path id="パス_14" data-name="パス 14" d="M523.116-13.752c0-8.028-5.9-13.1-13.392-13.1a15.527,15.527,0,0,0-15.876,15.264,10.457,10.457,0,0,0,4.424,8.372,6.07,6.07,0,0,0,2.776,1.312c1.872,0,3.528-3.024,4.608-5.256,1.188-2.412,3.312-7.452,4.464-16.02a9.21,9.21,0,0,1,6.12,2.412,8.487,8.487,0,0,1,2.592,6.3,11.263,11.263,0,0,1-2.592,7.164,12.125,12.125,0,0,1-6.48,3.852L512.424.252a17.379,17.379,0,0,0,8.388-6.336A13.451,13.451,0,0,0,523.116-13.752Zm-17.28-8.784c-.72,5.616-3.816,15.012-5.688,15.012-.648,0-2.3-1.512-2.3-4.428a11.79,11.79,0,0,1,3.6-7.992A10.628,10.628,0,0,1,505.836-22.536ZM33.192,39.112V35.44H17.46c.324-.54,1.656-3.348,1.764-3.42.072-.036.576-.108.648-.144.18-.072.216-.18.216-.252,0-.288-.576-.54-.72-.648l-2.88-1.368h12.2v3.636h4v-7.2H20.232V24.892c0-.252.108-.36.576-.684a.558.558,0,0,0,.252-.432c0-.216-.252-.4-1.008-.432l-4.32-.216v2.916H3.564V33.1H7.488V29.608h8.064a36.155,36.155,0,0,1-2.7,5.832H2.772v3.672h7.92a44.854,44.854,0,0,1-4.176,5.652l4.1,1.728c.36-.468.432-.54,1.044-1.44a24.033,24.033,0,0,1,4.752,1.62c-2.628,1.8-7.02,3.1-12.744,3.384l1.98,3.636c8.712-.9,12.168-3.456,14.508-5.184a37.829,37.829,0,0,1,8.1,5.508l3.168-3.348a46.86,46.86,0,0,0-8.316-5.04,34.159,34.159,0,0,0,4.1-6.516Zm-10.62,0a21.11,21.11,0,0,1-3.06,4.968,36.221,36.221,0,0,0-6.048-1.836c1.188-1.908,1.3-2.088,1.908-3.132ZM61.848,27.376a32.791,32.791,0,0,0-8.5-4.752l-2.088,3.492a39.733,39.733,0,0,1,8.028,4.932ZM71.82,42.712a38.614,38.614,0,0,0-6.444-9.936l-3.6,2.052A43.345,43.345,0,0,1,67.9,44.8Zm-5,4.608L63,45.376c-.828,3.348-1.908,3.96-3.168,3.96H56.16a1.8,1.8,0,0,1-1.944-1.872V34a1.165,1.165,0,0,1,.5-.9c.288-.252.432-.432.432-.648,0-.324-.252-.4-.54-.432l-4.68-.54V49.264c0,2.7,1.3,3.96,4.176,3.96h7.668C64.584,53.224,65.7,51.136,66.816,47.32Zm-18-11.448a.534.534,0,0,0-.432-.5l-4.248-1.116a50.986,50.986,0,0,1-4.464,11.412l4.068,1.4A67.419,67.419,0,0,0,47.7,37.24c.144-.432.216-.468.792-.864A.626.626,0,0,0,48.816,35.872ZM109.476,48l-3.276-1.44a9,9,0,0,1-.432,2.412,2.118,2.118,0,0,1-1.944,1.332h-5.8c-1.44,0-1.944-.828-1.944-1.656v-8.5l2.232-.72v7.992h3.276V44.044l1.692,2.7c2.808-.5,4.5-1.368,4.5-3.744V34.216l-1.836-.936-4.356,1.3v-2.3c0-.108.072-.144.5-.468.36-.252.432-.4.432-.5,0-.36-.54-.432-.936-.432l-3.276-.108v4.824l-2.232.648V33.964c0-.108.036-.144.432-.36.4-.252.5-.324.5-.5,0-.4-.5-.432-.936-.468l-1.944-.18a19.97,19.97,0,0,0,1.836-2.808h13v-3.42H97.632c.108-.216.612-1.332.684-1.4.108-.072.612-.252.684-.324a.391.391,0,0,0,.252-.36c0-.252-.324-.4-.756-.5l-3.672-.864a19.145,19.145,0,0,1-3.636,7.416V27.52h-4V24.28c0-.108.216-.252.5-.468a.519.519,0,0,0,.252-.4c0-.36-.612-.432-.864-.468l-4.1-.324v4.9h-5v3.636H81.36c-.072,8.316-.54,15.48-4.644,20.808l3.528,1.692c3.492-4.644,4.248-12.528,4.536-15.588h2.556a51.081,51.081,0,0,1-.792,9.648c-.468,2.268-1.152,2.772-2.412,2.772a10.13,10.13,0,0,1-1.944-.252l1.764,3.852c2.124-.072,4.32-.324,5.292-3.24.756-2.376,1.152-9.9,1.332-12.708l.468,3.6,1.512-.5v8.712c0,2.52,1.3,3.708,4.1,3.708h7.848C108.936,53.656,109.26,50.236,109.476,48Zm-5.292-5.688A1.124,1.124,0,0,1,102.96,43.5a8.694,8.694,0,0,1-1.368-.144V38.428l2.592-.828Zm-11.628-5-2.016.612c.036-.792.072-2.16.072-3.348H85c.036-1.4.072-2.2.072-3.42h5.256a12.617,12.617,0,0,1-1.908,1.656l3.132,2.412a13.076,13.076,0,0,0,1.008-.972Zm53.892,13.824V47H133.38V29.356h10.872V25.324H118.116v4.032h10.836V47h-13.14v4.14Z" transform="translate(-772 305)" fill="#0e376f"/>
  </g>
</svg>
