<svg xmlns="http://www.w3.org/2000/svg" width="328.5" height="274.5" viewBox="0 0 328.5 274.5">
  <g id="グループ_46" data-name="グループ 46" transform="translate(1205.56 482)">
    <g id="グループ_39" data-name="グループ 39" transform="translate(-748 -650)">
      <g id="グループ_38" data-name="グループ 38">
        <path id="パス_13" data-name="パス 13" d="M44.1-33.12a35.8,35.8,0,0,0-4.365-4.41L37.44-35.37a33.856,33.856,0,0,1,4.275,4.5Zm-5.445,2.295a31.007,31.007,0,0,0-4.185-4.23l-2.34,2.3a34.636,34.636,0,0,1,4.23,4.275Zm-.72,4.1H24.8c.27-2.79.36-4.185.405-5.76.045-.585,0-.63.36-.9.63-.5.63-.5.63-.675,0-.54-.855-.675-1.035-.675l-5.535-.63c-.045,3.555-.09,5.58-.36,8.64H7.11v4.995H18.585C16.515-11.97,12.33-7.47,5.22-2.925L9.63.54c6.255-4,11.7-9.27,14.445-22.275H32.4c-.18,9.9-1.845,14.085-2.61,15.345a2.937,2.937,0,0,1-2.7,1.44,25.046,25.046,0,0,1-4.5-.54L24.84.36c4.86,0,8.055-.27,9.855-4.5C37.71-11.115,37.89-22.77,37.935-26.73ZM87.84-5.4A89.942,89.942,0,0,0,75.915-16.515a54.356,54.356,0,0,0,5.22-10.08,6.234,6.234,0,0,1,2.43-2.7L80.1-33.12a4.266,4.266,0,0,1-2.34.99h-19.4v5.22H75.51a35.971,35.971,0,0,1-7.65,12.285A39.907,39.907,0,0,1,53.505-4.9L57.465-.81c8.46-4.14,11.79-7.56,15.39-11.565a70.974,70.974,0,0,1,10.98,11.25Zm49.455-11.79c0-10.035-7.38-16.38-16.74-16.38A19.408,19.408,0,0,0,100.71-14.49c0,8.055,7.38,12.1,9,12.1,2.34,0,4.41-3.78,5.76-6.57,1.485-3.015,4.14-9.315,5.58-20.025a11.512,11.512,0,0,1,7.65,3.015,10.609,10.609,0,0,1,3.24,7.875,14.079,14.079,0,0,1-3.24,8.955,15.157,15.157,0,0,1-8.1,4.815L123.93.315a21.724,21.724,0,0,0,10.485-7.92A16.814,16.814,0,0,0,137.295-17.19ZM115.7-28.17c-.9,7.02-4.77,18.765-7.11,18.765-.81,0-2.88-1.89-2.88-5.535a14.737,14.737,0,0,1,4.5-9.99A13.285,13.285,0,0,1,115.7-28.17ZM182.16-10.26c0-5.49-4.455-9.09-9.99-9.09-1.845,0-4.995.5-9.54,3.465.9-2.97,1.845-6.525,2.205-7.92a52.57,52.57,0,0,0,12.51-3.015v-4.9a39.193,39.193,0,0,1-11.385,3.51c.225-.945,1.3-5.355,1.53-6.21.54-.315,1.125-.315,1.125-.81,0-.315-.63-.495-.945-.585l-5.13-1.17a71.693,71.693,0,0,1-1.62,9.36c-.72.045-1.485.09-2.34.09a30.155,30.155,0,0,1-6.3-.72l.63,4.77c1.8.18,3.825.18,4.23.18.855,0,1.845,0,2.79-.09a102.17,102.17,0,0,1-3.51,11.835L160.2-8.6c3.42-3.195,7.11-6.525,11.25-6.525,3.1,0,5.85,2.07,5.85,5.13,0,3.735-4.1,7.38-13.005,7.38a47.056,47.056,0,0,1-5.85-.36l1.485,5.13c5.175-.09,11.97-.315,15.93-2.34A11.153,11.153,0,0,0,182.16-10.26Zm51.615-6.39c0-1.62-1.125-6.93-7.02-13.23l-3.735,2.7c2.475,2.835,5,7.335,5,8.73,0,1.08-1.035,1.17-2.97,1.35l3.06,4.635C230.985-13.005,233.775-14.085,233.775-16.65ZM223.11-18.63c0-2.745-.5-7.74-6.615-7.74a21.093,21.093,0,0,0-3.555.36c.315-1.71.63-3.285.855-4.9.045-.45.135-.5.945-.99.495-.315.585-.45.585-.63,0-.4-.9-.675-1.26-.72l-5.49-.765a46.58,46.58,0,0,1-.99,9c-1.98.315-6.12,1.08-9.4,1.35l1.8,5.445a56.651,56.651,0,0,1,6.39-1.935c-2.655,8.55-4.95,12.555-8.91,17.595l5.13,2.3A74.592,74.592,0,0,0,211.9-21.24a16.948,16.948,0,0,1,2.565-.225c3.24,0,3.735,1.44,3.735,3.825,0,4.545-1.89,9.99-2.745,11.2-.63.9-1.35,1.125-2.7,1.125a12.583,12.583,0,0,1-4.05-.72l.63,5.445a28.463,28.463,0,0,0,3.87.27c1.935,0,4.815-.18,6.75-3.465C222.345-7.92,223.11-14.9,223.11-18.63Zm46.26-12.825a53.467,53.467,0,0,0-10.755-4.635l-1.935,4.455a42.625,42.625,0,0,1,10.4,4.905Zm8.28,20.07c0-6.525-5.265-9.855-9.99-9.855a17.3,17.3,0,0,0-11.07,4.545,57.489,57.489,0,0,1,2.7-9.9l-5.175-2.025c-.99,3.42-3.15,11.07-3.51,17.19l3.915,2.07c4.635-5.4,9.18-7.2,12.285-7.2,3.375,0,5.67,1.845,5.67,4.725,0,4.14-3.825,8.505-12.2,8.505a45.063,45.063,0,0,1-5.625-.5L257.04,1.71C262.62,1.575,277.65,1.3,277.65-11.385ZM329.94-21.69a20.761,20.761,0,0,0-3.735-3.42l-1.89,2.16a20.833,20.833,0,0,1,3.735,3.42Zm-3.645,4.1a19.62,19.62,0,0,0-3.735-3.465l-1.845,2.16a19.978,19.978,0,0,1,3.69,3.465ZM327.78-29.34v-5.22c-8.505,2.61-22.455,3.69-32.175,3.6l.765,5.04c4.5-.63,11.115-1.17,17.145-1.665a33.552,33.552,0,0,0-5.94,6.84,16.369,16.369,0,0,0-3.06,8.955,11.288,11.288,0,0,0,3.33,8.1c3.645,3.645,8.685,4.59,11.07,5l1.755-5.49a14.172,14.172,0,0,1-7.92-2.295,7.142,7.142,0,0,1-3.24-5.85c0-3.42,2.16-7.47,5.49-10.8C320.715-28.89,325.665-29.2,327.78-29.34ZM41.715,50.95V46.585h-4.68a75.353,75.353,0,0,0,.045-7.965H10.17a73.131,73.131,0,0,1-.45,7.965H3.33V50.95H9.09A44.94,44.94,0,0,1,6.165,62.065l5.355.675c.315-.99.63-2.07.945-3.06h17.55C29.43,61.3,28.89,61.93,27,61.93a19.973,19.973,0,0,1-2.79-.18l1.755,4.77c7.47.315,8.325-2.34,9.675-6.84h5.4V55.81H36.27c.27-2.07.315-2.61.495-4.86ZM32.04,42.49c0,1.305-.045,2.025-.09,4.1H26.1c.135-1.665.225-2.835.225-4.1Zm-10.71,0a31.041,31.041,0,0,1-.27,4.1H14.85c.18-2.115.225-2.79.27-4.1Zm10.305,8.46c-.09,1.4-.27,3.1-.54,4.86H24.8c.36-1.575.585-3.15.81-4.86Zm-11.115,0a40.6,40.6,0,0,1-.945,4.86H13.41c.54-2.385.765-3.87.9-4.86ZM40.86,35.875v-4.5H13.545c.225-.54.4-.99.585-1.485a8.359,8.359,0,0,1,.855-.495c.36-.225.585-.36.585-.675,0-.4-.945-.675-1.53-.81L9.18,26.6a24.152,24.152,0,0,1-7.74,12.24L6.255,42.13a32.409,32.409,0,0,0,4.815-6.255Zm43.695,28.8V30.025H56.925V64.9H62.28V62.335H79.29v2.34ZM79.29,43.525H62.28v-8.55H79.29Zm0,13.9H62.28V48.205H79.29Zm58-10.62c0-10.035-7.38-16.38-16.74-16.38A19.408,19.408,0,0,0,100.71,49.51c0,8.055,7.38,12.1,9,12.1,2.34,0,4.41-3.78,5.76-6.57,1.485-3.015,4.14-9.315,5.58-20.025a11.512,11.512,0,0,1,7.65,3.015,10.609,10.609,0,0,1,3.24,7.875,14.079,14.079,0,0,1-3.24,8.955,15.157,15.157,0,0,1-8.1,4.815l3.33,4.635a21.724,21.724,0,0,0,10.485-7.92A16.814,16.814,0,0,0,137.295,46.81ZM115.7,35.83c-.9,7.02-4.77,18.765-7.11,18.765-.81,0-2.88-1.89-2.88-5.535a14.737,14.737,0,0,1,4.5-9.99A13.285,13.285,0,0,1,115.7,35.83Zm70.83,15.84V47.98H163.8c.135-.225.54-.765.81-1.125h16.875V35.29H175.41V33.4h11.115V29.8H175.41v-.585a.717.717,0,0,1,.4-.54c.4-.315.45-.495.45-.72,0-.45-.495-.54-.9-.54l-4.9-.135V29.8h-6.705c0-.72,0-.81.495-1.17.18-.18.36-.315.36-.495,0-.585-.81-.63-1.035-.63l-4.77-.225V29.8H147.78v3.6h11.025v1.89h-5.76V46.855h5.9c-.27.405-.45.72-.765,1.125h-10.4v3.69h6.705a26.7,26.7,0,0,1-6.705,4.185l3.375,3.1a32.173,32.173,0,0,0,3.78-2.52v9.9h4.77V64.765H174.06v1.53h4.725v-9.27a22.407,22.407,0,0,0,4.68,2.295l2.43-3.42a18.6,18.6,0,0,1-7.56-4.23ZM176.67,39.655h-18.9v-1.53h18.9Zm-6.21-4.365h-6.705V33.4h6.705Zm6.21,8.685h-18.9v-1.53h18.9ZM174.06,57.7H159.705V56.08H174.06Zm-.765-4.635H158.94c.315-.27,1.08-.99,1.485-1.4H171.9C172.35,52.165,172.8,52.615,173.295,53.065Zm.765,8.865H159.705V60.175H174.06Zm47.07-29.385a53.468,53.468,0,0,0-10.755-4.635l-1.935,4.455a42.625,42.625,0,0,1,10.4,4.905Zm8.28,20.07c0-6.525-5.265-9.855-9.99-9.855a17.3,17.3,0,0,0-11.07,4.545,57.492,57.492,0,0,1,2.7-9.9l-5.175-2.025c-.99,3.42-3.15,11.07-3.51,17.19l3.915,2.07c4.635-5.4,9.18-7.2,12.285-7.2,3.375,0,5.67,1.845,5.67,4.725,0,4.14-3.825,8.5-12.195,8.5a45.063,45.063,0,0,1-5.625-.495L208.8,65.71C214.38,65.575,229.41,65.305,229.41,52.615Zm50.49.4-4.41-3.645c-4.41,8.64-10.44,10.215-12.96,10.215a4.339,4.339,0,0,1-3.96-1.89c-.855-1.53-.855-5.9-.855-7.965,0-4.95.9-16.83,1.26-18,.72-.585,1.26-.945,1.26-1.305,0-.27-.4-.585-1.485-.72l-5.985-.855c.135,3.015-.225,16.38-.225,19.125,0,10.8.72,13.1,2.835,14.94a10.009,10.009,0,0,0,6.57,2.295,16.266,16.266,0,0,0,8.955-2.88C275.355,59.455,278.055,55.585,279.9,53.02ZM327.645,46.5l-1.53-5.13c-2.115.945-2.7,1.215-7.965,3.69-1.035-2.97-3.015-4.545-6.12-4.545a8.7,8.7,0,0,0-3.87.945c.765-1.17,1.125-1.8,2.565-4.455a94.725,94.725,0,0,0,10.755-1.71l.315-5.04a38,38,0,0,1-8.82,2.295c.225-.495,1.35-3.015,1.395-3.06.045,0,.945-.405,1.035-.45.27-.09.45-.225.45-.495,0-.315-.765-.4-.9-.45l-5.625-.99a34.9,34.9,0,0,1-2.25,5.985,63.292,63.292,0,0,1-8.6-.18l.54,4.68c1.89,0,3.285-.045,5.85-.18A59.832,59.832,0,0,1,296.01,49.78l4.41,2.745c2.475-4.05,5.175-8.145,9.585-8.145,2.61,0,3.15,1.62,3.42,2.97-6.75,3.465-10.89,5.58-10.89,11.16a6.152,6.152,0,0,0,1.71,4.41c2.835,3.015,8.055,3.015,10.575,3.015a74.474,74.474,0,0,0,10.71-.675V60.175a52.029,52.029,0,0,1-11.475,1.44c-3.285,0-6.75-.585-6.75-3.51,0-3.15,4.68-5.49,6.39-6.345-.045,1.98-.09,4.185-.225,6.75h5.22c0-1.53-.09-7.11-.09-8.865C321.93,48.385,324.09,47.62,327.645,46.5ZM124.02,110.9a5.04,5.04,0,1,0-5.04,5.04A5.061,5.061,0,0,0,124.02,110.9Zm154.44-9.81V95.87a31.435,31.435,0,0,1-10.665,1.845,39.637,39.637,0,0,1-5.76-.495v4.95c2.385.225,4.455.225,4.815.225A60.436,60.436,0,0,0,278.46,101.09Zm2.16,23.625v-5.58a36.709,36.709,0,0,1-10.26,1.395c-4.545,0-4.995-1.215-5.04-5.49l-4.9.675c.135,7.605,1.845,9.81,10.035,9.81A61.509,61.509,0,0,0,280.62,124.715Zm-23.535-8.01-2.655-1.44c-.99,1.755-1.26,2.205-1.8,3.15a24.752,24.752,0,0,1-.63-6.165c0-6.795,1.935-14.94,2.61-15.345.09-.045.675-.27.765-.315a.533.533,0,0,0,.225-.4c0-.36-.855-.675-1.17-.81l-4.59-1.665a88.693,88.693,0,0,0-1.89,10.26,79.6,79.6,0,0,0-.675,8.865,39.205,39.205,0,0,0,1.845,11.835,13.775,13.775,0,0,0,1.665,3.555l3.555-1.4A39.923,39.923,0,0,1,257.085,116.705Z" transform="translate(-459 279)"/>
        <line id="線_17" data-name="線 17" x2="87" transform="translate(-454.5 440.5)" fill="none" stroke="#0e376f" stroke-width="4"/>
        <line id="線_18" data-name="線 18" x2="87" transform="translate(-312.5 440.5)" fill="none" stroke="#d97520" stroke-width="4"/>
      </g>
      <path id="パス_11" data-name="パス 11" d="M41.49,47.89V43.3H21.825c.4-.675,2.07-4.185,2.2-4.275.09-.045.72-.135.81-.18.225-.09.27-.225.27-.315,0-.36-.72-.675-.9-.81l-3.6-1.71H35.865v4.545h5v-9H25.29v-1.44c0-.315.135-.45.72-.855a.7.7,0,0,0,.315-.54c0-.27-.315-.5-1.26-.54l-5.4-.27v3.645H4.455v8.82H9.36V36.01H19.44a45.193,45.193,0,0,1-3.375,7.29H3.465v4.59h9.9a56.068,56.068,0,0,1-5.22,7.065l5.13,2.16c.45-.585.54-.675,1.305-1.8a30.042,30.042,0,0,1,5.94,2.025c-3.285,2.25-8.775,3.87-15.93,4.23l2.475,4.545c10.89-1.125,15.21-4.32,18.135-6.48A47.286,47.286,0,0,1,35.325,66.52l3.96-4.185a58.575,58.575,0,0,0-10.395-6.3,42.7,42.7,0,0,0,5.13-8.145Zm-13.275,0A26.388,26.388,0,0,1,24.39,54.1a45.277,45.277,0,0,0-7.56-2.295c1.485-2.385,1.62-2.61,2.385-3.915ZM90.99,42.04c-9.54-3.87-15.435-9.315-17.37-12.69.855-.405.855-.63.855-.765,0-.27-.135-.495-.9-.63L68.04,26.83c-3.465,6.795-9.63,13.41-17.46,16.335l4.185,3.78a51.445,51.445,0,0,0,5.31-3.24v2.88H68.04v4.68H57.465v4.68H68.04v5.04H52.92V65.53H89.1V60.985H73.755v-5.04H84.33v-4.68H73.755v-4.68H81.72v-3.24A51.78,51.78,0,0,0,86.94,46Zm-11.43-.09H62.325A41.92,41.92,0,0,0,70.2,33.49,47.2,47.2,0,0,0,79.56,41.95Z" transform="translate(-459.005 343)" fill="#0e376f"/>
      <path id="パス_12" data-name="パス 12" d="M42.615-1.665c-6.93-2.3-10.485-6.8-12.15-11.835H41.9v-4.725h-3.42l.4-11.835H29.655c0-.765-.09-4.05-.09-4.365.855-.63,1.125-.81,1.125-1.17,0-.54-.4-.675-1.575-.765l-5.175-.495c.18,2.835.225,4.995.225,6.8H18v3.645a20.745,20.745,0,0,0-1.4-3.015L13.41-28.17v-5.8c0-.225.315-.405.765-.675s.72-.45.72-.81c0-.45-.36-.54-1.71-.63l-4.77-.27v7.29c-.135-.4-.54-.45-1.035-.495L3.51-29.88A35.092,35.092,0,0,1,1.98-17.955l4.23.585c1.35-3.42,1.53-7.2,1.485-10.89.225-.135.63-.225.72-.675V2.115h5V-.18L17.325,2.3A26.646,26.646,0,0,0,27.09-9.09C28.215-6.75,32.04-.45,38.3,2.3Zm-9.36-23.85-.135,7.29H29.25a57.345,57.345,0,0,0,.45-7.29Zm-9.045,0a60.186,60.186,0,0,1-.27,7.29H14.985V-13.5h8.01c-.54,2.565-2.34,8.145-9.585,11.925v-24.48a35.624,35.624,0,0,1,2.07,6.21L19.44-21.6a35.087,35.087,0,0,0-1.08-3.915ZM88.83-29.3v-3.69H77.715v-1.4a1.151,1.151,0,0,1,.45-.855c.315-.27.45-.4.45-.72,0-.495-.585-.54-1.755-.585l-4.725-.135v3.69H61.965v3.69h4.59A18.548,18.548,0,0,1,68.58-26.37H63.09V-5.76h4.545V-23.4h5.85v1.8h-4.86v3.06h4.86v2.025h-4v9.63H73.4v-1.3h7.2l1.35,3.645c4.77-.4,5.895-1.3,5.895-3.2V-26.37H81.4a21.213,21.213,0,0,0,1.26-2.925Zm-5.49,18.99c0,1.17-.81,1.17-2.025,1.125v-7.335H77.49V-18.54H81.9V-21.6H77.49v-1.8h5.85Zm-5.985-.81H73.4V-13.59h3.96Zm-15.75-19.26a64.3,64.3,0,0,0-6.885-5.4l-3.555,3.69A66,66,0,0,1,57.87-26.55ZM78.39-29.3a16.023,16.023,0,0,1-1.53,2.925H73.44A21.442,21.442,0,0,0,71.505-29.3ZM91.4-4.5A128.985,128.985,0,0,1,71.64-3.33c-8.19,0-10.575-.36-10.575-6.03V-20.835h-9.45v4.815h4.59v9.045a51.694,51.694,0,0,1-5.535,3.1L52.335.135c.27.63.72,1.62,1.215,1.62.63,0,.675-.81.72-1.44C55.8-.765,57.15-1.8,58.635-3.06,60.885-.45,62.01.855,70.785.855H89.28Z" transform="translate(-314 406.995)" fill="#d95920"/>
    </g>
    <rect id="長方形_64" data-name="長方形 64" width="36" height="36" transform="translate(-1205 -482)" fill="#0e376f"/>
  </g>
</svg>
