<svg xmlns="http://www.w3.org/2000/svg" width="368.64" height="84.076" viewBox="0 0 368.64 84.076">
  <g id="グループ_42" data-name="グループ 42" transform="translate(693.524 -651.408)">
    <path id="パス_19" data-name="パス 19" d="M34.776-.288A63.758,63.758,0,0,0,28.62-15.3l-3.456,1.548A43.578,43.578,0,0,1,28.872-5.94a75.749,75.749,0,0,1-8.1,1.4c1.8-7.236,4.392-19.26,4.464-19.8.324-1.944.4-1.98.828-2.2.216-.108.4-.18.4-.432,0-.216-.252-.36-.864-.5l-3.96-1.008c-1.368,8.892-3.2,18.144-4.68,24.372-.684.072-2.052.18-3.168.18l1.008,4c.072.36.252.9.54.9.108,0,.216-.108.432-.468C16.02.036,16.2,0,17.5-.144c1.224-.144,9.216-1.728,12.456-2.448.432,1.548.648,2.448.864,3.564Zm-17.424-10.8a15.744,15.744,0,0,1-4.644-6.084h4.608v-3.492h-5v-4.212c1.188-.288,2.916-.792,3.852-1.116.18,0,.828.144.936.144.18,0,.252-.18.252-.324a1.149,1.149,0,0,0-.324-.576l-2.772-2.808C11.916-28.188,7.884-27,2.232-26.5L4.14-23.472c1.728-.18,2.556-.324,4.284-.612v3.42H2.484v3.492H7.6A25.7,25.7,0,0,1,1.476-5.616L4.9-3.564A32.241,32.241,0,0,0,8.424-9V1.836h3.888V-11.448A25.376,25.376,0,0,0,14.832-8.5ZM68.688-13.1V-16.92a41.342,41.342,0,0,0-4.752-.216c-1.908,0-3.708.108-5.58.252v3.78a44.121,44.121,0,0,1,5.4-.4A39.124,39.124,0,0,1,68.688-13.1ZM60.552-20.34v-4a28.156,28.156,0,0,1-5.724,2.124c.252-1.008.54-2.3.864-3.924.072-.36.144-.4.612-.612.324-.144.432-.252.432-.5,0-.4-.828-.576-.9-.576l-4.428-1.044a43.717,43.717,0,0,1-1.224,7.632,26.12,26.12,0,0,1-3.564.216A14.525,14.525,0,0,1,43.7-21.24l.288,3.744a47.464,47.464,0,0,0,5.364-.432C46.512-8.172,44.208-4.284,42.048-.792L46.44.54a102.1,102.1,0,0,0,7.416-19.152A43.449,43.449,0,0,0,60.552-20.34ZM69.264.252,68.9-3.924a23.7,23.7,0,0,1-6.336.792C61.74-3.132,59-3.168,58-4.1a1.236,1.236,0,0,1-.432-1.08,6.807,6.807,0,0,1,.144-1.332l-3.564-.756a8.343,8.343,0,0,0-.432,2.592c0,3.672,2.772,5.472,9.252,5.472A34.82,34.82,0,0,0,69.264.252Zm36.144-8.46c0-4.392-3.564-7.272-7.992-7.272-1.476,0-4,.4-7.632,2.772.72-2.376,1.476-5.22,1.764-6.336a42.056,42.056,0,0,0,10.008-2.412V-25.38a31.355,31.355,0,0,1-9.108,2.808c.18-.756,1.044-4.284,1.224-4.968.432-.252.9-.252.9-.648,0-.252-.5-.4-.756-.468l-4.1-.936a57.355,57.355,0,0,1-1.3,7.488c-.576.036-1.188.072-1.872.072a24.124,24.124,0,0,1-5.04-.576l.5,3.816c1.44.144,3.06.144,3.384.144.684,0,1.476,0,2.232-.072a81.735,81.735,0,0,1-2.808,9.468L87.84-6.876c2.736-2.556,5.688-5.22,9-5.22,2.484,0,4.68,1.656,4.68,4.1,0,2.988-3.276,5.9-10.4,5.9a37.645,37.645,0,0,1-4.68-.288l1.188,4.1c4.14-.072,9.576-.252,12.744-1.872A8.922,8.922,0,0,0,105.408-8.208Z" transform="translate(-695 681)" fill="#d95920"/>
    <path id="パス_18" data-name="パス 18" d="M145.836-13.752c0-8.028-5.9-13.1-13.392-13.1a15.527,15.527,0,0,0-15.876,15.264c0,6.444,5.9,9.684,7.2,9.684,1.872,0,3.528-3.024,4.608-5.256,1.188-2.412,3.312-7.452,4.464-16.02a9.21,9.21,0,0,1,6.12,2.412,8.487,8.487,0,0,1,2.592,6.3,11.263,11.263,0,0,1-2.592,7.164,12.125,12.125,0,0,1-6.48,3.852L135.144.252a17.379,17.379,0,0,0,8.388-6.336A13.451,13.451,0,0,0,145.836-13.752Zm-17.28-8.784c-.72,5.616-3.816,15.012-5.688,15.012-.648,0-2.3-1.512-2.3-4.428a11.79,11.79,0,0,1,3.6-7.992A10.628,10.628,0,0,1,128.556-22.536Zm55.728,7.812V-17.64H153.5v2.916h2.628V-3.816c-.576.072-1.044.144-2.664.324l.576,3.2a.283.283,0,0,0,.288.216c.108,0,.288-.216.432-.324a9.149,9.149,0,0,1,1.98-.4c1.3-.18,5.436-1.008,7.884-1.548v4h3.96V-1.26l2.16,2.448a26.792,26.792,0,0,0,4.86-3.132,23.439,23.439,0,0,0,5.58,3.348l2.556-3.276A16.067,16.067,0,0,1,178.2-4.464a29.724,29.724,0,0,0,4.212-7.236l-1.44-1.476H169.74v2.808h2.952L170.424-8.46A15,15,0,0,0,173.2-4.248a12.5,12.5,0,0,1-4.608,2.628v-13.1ZM164.628-9.036h-4.5v-1.656h4.5Zm0-4.176h-4.5v-1.512h4.5Zm0,8.172c-1.944.36-3.2.54-4.5.72v-2.2h4.5Zm13-5.328A13.557,13.557,0,0,1,175.572-6.7a10.162,10.162,0,0,1-2.484-3.672Zm2.2-8.532v-9.54H157.752v9.54Zm-4.176-5.8H161.928v-1.4h13.716Zm0,3.456H161.928v-1.4h13.716Zm45.972,5.04v-3.564h-14.4c0-1.908,0-2.124.036-4.032a74.674,74.674,0,0,0,11.412-1.26,5.992,5.992,0,0,1,1.188-.216,5.046,5.046,0,0,0,1.044,0c.072-.036.072-.072.072-.108,0-.252-.36-.648-.5-.792L217.692-29.3a29.365,29.365,0,0,1-4.14,1.368,65.663,65.663,0,0,1-7.956,1.044,6.465,6.465,0,0,1-.792-.072l-1.62-.288c.108,2.592.144,5.22.144,7.812,0,9.324-1.728,11.7-2.916,13.284l3.744,1.692c1.044-1.98,2.556-4.932,2.988-11.736h4.32V-3.924h4.1V-16.2Zm-21.6-8.208a19.2,19.2,0,0,0-5.616-4.068l-2.664,3.1a31.407,31.407,0,0,1,5.58,3.888Zm23.256,21.06c-6.984.648-14.544.792-16.632.792-4.068,0-7.128-.756-7.128-3.312V-16.38H191.3v3.636h4.32v7.776A32.577,32.577,0,0,1,190.836-2.3l1.836,3.672c.18.36.4.432.5.432.072,0,.108-.072.288-.576.108-.324.216-.4,1.188-1.08A33.726,33.726,0,0,0,198-2.592c.972,1.656,1.944,3.348,8.712,3.456C209.376.9,217.188.936,221.364.9Zm35.748-10.4c0-8.028-5.9-13.1-13.392-13.1a15.527,15.527,0,0,0-15.876,15.264c0,6.444,5.9,9.684,7.2,9.684,1.872,0,3.528-3.024,4.608-5.256,1.188-2.412,3.312-7.452,4.464-16.02a9.21,9.21,0,0,1,6.12,2.412,8.487,8.487,0,0,1,2.592,6.3,11.263,11.263,0,0,1-2.592,7.164,12.125,12.125,0,0,1-6.48,3.852L248.328.252a17.379,17.379,0,0,0,8.388-6.336A13.451,13.451,0,0,0,259.02-13.752Zm-17.28-8.784c-.72,5.616-3.816,15.012-5.688,15.012-.648,0-2.3-1.512-2.3-4.428a11.79,11.79,0,0,1,3.6-7.992A10.628,10.628,0,0,1,241.74-22.536ZM297.288-8.712a38.625,38.625,0,0,0-7.128-5.832l-2.484,2.808a43.379,43.379,0,0,1,6.948,6.084Zm.288-6.156V-18.9H284.364v-2.3h10.26v-3.888h-10.26V-27.36c0-.252.108-.36.612-.792a.788.788,0,0,0,.288-.5c0-.5-1.008-.612-1.4-.612l-3.924-.072V-18.9h-3.672v-6.012c0-.216.036-.4.4-.792.252-.252.324-.36.324-.54,0-.54-1.044-.612-1.188-.612l-3.852-.108V-18.9h-5.436v4.032h13.428v3.96c0,1.08-.288,1.332-1.008,1.332a21.769,21.769,0,0,1-2.2-.144l1.44,4.032c5-.036,6.192-.864,6.192-2.52v-6.66Zm-6.3,7.812a1.067,1.067,0,0,0-.5-.756l-3.1-2.556c-.972,1.4-3.888,5.616-11.088,7.524A33.45,33.45,0,0,1,267.516-1.8l1.44,4.1c10.368,0,17.6-4.572,20.88-8.676.144-.072.828-.18.972-.252C291.2-6.732,291.276-6.912,291.276-7.056ZM277.632-11.34c0-.216-.324-.5-.432-.576l-3.168-2.232a26.961,26.961,0,0,1-6.408,6.7l3.132,2.772a30.587,30.587,0,0,0,5.436-5.976c.108-.108.18-.108.54-.18C277.416-10.944,277.632-11.052,277.632-11.34Zm56.916,2.052C333-10.3,331.884-10.98,329.9-12.1a43.446,43.446,0,0,0,1.224-5.364c.108-.5.108-.576.4-.756.5-.252.54-.288.54-.468,0-.324-.5-.5-.864-.612l-4.032-1.116a30.607,30.607,0,0,1-.936,6.588,23.165,23.165,0,0,0-6.948-1.656c.5-1.116,3.06-6.912,3.1-7.056a14.674,14.674,0,0,1,1.872-3.06l-2.376-2.376c-1.944,1.26-6.192,1.98-11.736,1.944l1.62,3.636a25.126,25.126,0,0,0,6.552-1.116A83.361,83.361,0,0,1,315.4-15.7a9.714,9.714,0,0,0-5.724,1.728,8.947,8.947,0,0,0-4.248,7.128c0,2.664,1.62,4.644,4.068,4.644,3.168,0,4.716-2.3,8.28-9.936a22.289,22.289,0,0,1,7.2,2.016c-2.16,4.572-4,6.408-7.164,8.46L321.372.828c3.348-2.484,5.04-4.5,7.128-8.964.828.54,1.836,1.224,3.744,2.7Zm-20.772-2.736A40.874,40.874,0,0,1,311.4-7.56a1.642,1.642,0,0,1-1.512.864c-.252,0-.72-.036-.72-.972C309.168-9,310.68-11.052,313.776-12.024ZM370.116-14l-1.224-4.1c-1.692.756-2.16.972-6.372,2.952a4.825,4.825,0,0,0-4.9-3.636,6.961,6.961,0,0,0-3.1.756c.612-.936.9-1.44,2.052-3.564a75.778,75.778,0,0,0,8.6-1.368L365.436-27a30.4,30.4,0,0,1-7.056,1.836c.18-.4,1.08-2.412,1.116-2.448.036,0,.756-.324.828-.36.216-.072.36-.18.36-.4,0-.252-.612-.324-.72-.36l-4.5-.792a27.915,27.915,0,0,1-1.8,4.788,50.635,50.635,0,0,1-6.876-.144l.432,3.744c1.512,0,2.628-.036,4.68-.144a47.865,47.865,0,0,1-7.092,9.9l3.528,2.2c1.98-3.24,4.14-6.516,7.668-6.516a2.494,2.494,0,0,1,2.736,2.376c-5.4,2.772-8.712,4.464-8.712,8.928A4.922,4.922,0,0,0,351.4-.864c2.268,2.412,6.444,2.412,8.46,2.412a59.579,59.579,0,0,0,8.568-.54V-3.06a41.623,41.623,0,0,1-9.18,1.152c-2.628,0-5.4-.468-5.4-2.808,0-2.52,3.744-4.392,5.112-5.076-.036,1.584-.072,3.348-.18,5.4h4.176c0-1.224-.072-5.688-.072-7.092C365.544-12.492,367.272-13.1,370.116-14ZM34.632,25.216a16.677,16.677,0,0,0-3.06-2.952l-1.548,1.62a15.212,15.212,0,0,1,2.952,3.06Zm-2.016,4.1a15.4,15.4,0,0,0-2.988-3.2l-1.548,1.62a14.844,14.844,0,0,1,2.988,3.2Zm-5.544-.4-1.62-2.916a57.2,57.2,0,0,1-8.208.576,63.693,63.693,0,0,1-9.072-.648l1.08,3.96c1.692.108,2.736.144,4.9.144,2.736,0,4-.072,5.544-.18-1.368,1.26-2.808,2.556-3.636,3.276l2.484,2.592C21.492,33.208,24.264,30.868,27.072,28.924Zm1.692,21.384-.252-4.32A50.266,50.266,0,0,1,17.388,47.14c-6.12,0-6.372-1.008-6.372-2.016,0-1.3,1.44-2.556,2.016-3.024L9.9,39.544c-1.08.972-3.492,3.132-3.492,6.372,0,3.636,3.456,5.148,11.592,5.148A87.868,87.868,0,0,0,28.764,50.308ZM70.92,53.584V39.9H54.972V53.476h4.1v-1.26h7.632v1.368Zm-4.212-5.04H59.076V43.576h7.632Zm-12.42-8.5a25.717,25.717,0,0,0-2.016-6.84l-3.2.756a17.249,17.249,0,0,1,.756,2.088c-.684.072-.9.108-2.448.216,2.052-3.168,2.736-4.392,4.536-7.6.108-.216.18-.216.792-.324.144,0,.324-.036.324-.324,0-.36-.468-.648-.756-.792L49.428,25.9c-.972,1.908-1.944,3.672-2.988,5.544a12.91,12.91,0,0,0-.936-.972c.972-1.656,1.908-3.348,2.772-5.076.144-.324.144-.324.828-.576.18-.036.288-.108.288-.288,0-.36-.576-.576-.72-.648L45.684,22.66a31.955,31.955,0,0,1-2.628,5.76c-.288-.18-.72-.5-1.26-.828l-2.016,3.1a26.917,26.917,0,0,1,4.68,4.068c-.324.54-.792,1.3-1.116,1.728-1.368.036-2.3.072-3.384,0l.108,3.42c0,.216.072.792.36.792.108,0,.4-.252.576-.4.216-.18.252-.144,1.332-.252.216-.036,1.8-.216,2.808-.324v14H48.78V39.256c.216,0,1.872-.252,1.908-.252.144.5.252,1.116.36,1.692Zm-.36,8.676a35.6,35.6,0,0,1-1.152-7.092l-3.06.288a38.98,38.98,0,0,0,.792,7.308ZM71.136,23.6H53.568V27.34h5.616c-.288,6.444-4.032,8.676-5.472,9.576l3.024,2.88a13.4,13.4,0,0,0,5.04-6.156,17.942,17.942,0,0,0,1.188-6.3h4.068a23.941,23.941,0,0,1-.612,6.012c-.5,1.764-1.368,1.8-2.124,1.8a15.189,15.189,0,0,1-2.052-.144l1.548,4.248C69.444,39.04,70.92,38.5,71.136,23.6ZM44.784,41.92c0-.288-.216-.36-.864-.432l-3.1-.288a34.222,34.222,0,0,1-1.3,9.216l3.42.72A37.948,37.948,0,0,0,44.1,43.324a1.13,1.13,0,0,1,.432-.972C44.568,42.316,44.784,42.1,44.784,41.92ZM110.052,34.5c-6.3-2.088-11.34-5.832-14-10.44a.317.317,0,0,0,.18-.324c0-.4-.54-.5-.972-.54l-4.968-.468a21.309,21.309,0,0,1-4.68,6.912,23.872,23.872,0,0,1-8.784,5.58l4.032,3.1c3.852-2.088,7.884-4.86,12.456-11.844a32.093,32.093,0,0,0,13.5,11.664Zm-8.46,1.548c0-.4-.756-.468-.864-.468l-4-.324V53.8h4.248V36.988a.627.627,0,0,1,.288-.432A.663.663,0,0,0,101.592,36.052ZM91.044,35.98c0-.36-.252-.4-.972-.468l-3.924-.432c-.036,10.26-.4,13.428-6.084,16.2l3.492,3.2C87.12,52,89.316,49.7,90.036,42.748c.108-.936.18-5.8.252-5.94.108-.108.576-.468.648-.576A.329.329,0,0,0,91.044,35.98Zm53.1,7.236L140.616,40.3c-3.528,6.912-8.352,8.172-10.368,8.172a3.471,3.471,0,0,1-3.168-1.512c-.684-1.224-.684-4.716-.684-6.372a136.066,136.066,0,0,1,1.008-14.4c.576-.468,1.008-.756,1.008-1.044,0-.216-.324-.468-1.188-.576l-4.788-.684c.108,2.412-.18,13.1-.18,15.3,0,8.64.576,10.476,2.268,11.952a8.008,8.008,0,0,0,5.256,1.836,13.013,13.013,0,0,0,7.164-2.3A26.86,26.86,0,0,0,144.144,43.216Zm36.144,4.572a29.928,29.928,0,0,0-9.108-4.068c-.108-2.124-.108-2.484-.18-4.284a77.385,77.385,0,0,0,7.7-.9V34.612c-3.312.612-4.644.828-7.776,1.224V31.588c1.8-.036,5.148-.108,9.144-.108l.144-3.816c-3.384.252-4.608.324-9.216.54.036-1.872.072-2.556.072-2.592a1.17,1.17,0,0,1,.468-.648c.4-.324.468-.36.468-.5,0-.252-.216-.36-.9-.432l-4.392-.432.108,4.788c-3.2.072-5.148.144-9.252.144l.072,3.888c3.1-.36,5.148-.5,9.288-.684l.072,4.5a24.706,24.706,0,0,1-2.484.072c-.612,0-1.368,0-1.368-.5,0-.468.54-.864,1.188-1.332L162.288,32.7c-1.4,1.008-3.852,2.7-3.852,4.464,0,1.4,1.656,2.592,4.968,2.592,1.044,0,3.024-.072,3.672-.108l.072,3.456-1.008-.036c-8.1-.288-8.46,3.888-8.46,4.932,0,2.916,3.1,4.68,8.064,4.68,4.608,0,5.472-1.44,5.616-5.112a27.137,27.137,0,0,1,6.588,3.564Zm-13.1-1.26c.036,2.016-.108,2.664-2.448,2.664-.432,0-2.736,0-2.736-1.224,0-.936,1.152-1.548,3.492-1.548A9.319,9.319,0,0,1,167.184,46.528Zm52.992-15.372V27.268c-3.672.288-4.788.4-9.792.684V24.244c0-.144.036-.216.288-.432s.324-.324.324-.54c0-.36-.216-.468-1.044-.5l-4-.252c.216,2.628.216,4.536.252,5.652-7.56.36-10.656.36-13.1.36V32.7c4.572-.576,10.008-.9,13.212-1.08l.072,2.7a4.748,4.748,0,0,0-1.692-.288c-3.672,0-5.652,2.736-5.652,6.7a6.442,6.442,0,0,0,1.872,5,4.533,4.533,0,0,0,2.952,1.116,7.239,7.239,0,0,0,1.944-.36c-.792,2.628-2.988,4.5-5.148,5.9l4.032,2.088a24.976,24.976,0,0,0,4.9-6.7,16.142,16.142,0,0,0,1.836-6.948,9.285,9.285,0,0,0-1.044-4.392v-5.04C215.064,31.228,217.44,31.156,220.176,31.156Zm-13.1,9.108c0,2.556-1.728,3.348-2.484,3.348-.828,0-1.98-.828-1.98-2.988,0-1.908,1.008-3.168,2.448-3.168a1.873,1.873,0,0,1,1.332.5A3.357,3.357,0,0,1,207.072,40.264Z" transform="translate(-695 681)" fill="#0e376f"/>
  </g>
</svg>
