<svg xmlns="http://www.w3.org/2000/svg" width="479.34" height="88.724" viewBox="0 0 479.34 88.724">
  <g id="グループ_41" data-name="グループ 41" transform="translate(1009.524 -338.976)">
    <path id="パス_17" data-name="パス 17" d="M34.776-.288A63.758,63.758,0,0,0,28.62-15.3l-3.456,1.548A43.578,43.578,0,0,1,28.872-5.94a75.749,75.749,0,0,1-8.1,1.4c1.8-7.236,4.392-19.26,4.464-19.8.324-1.944.4-1.98.828-2.2.216-.108.4-.18.4-.432,0-.216-.252-.36-.864-.5l-3.96-1.008c-1.368,8.892-3.2,18.144-4.68,24.372-.684.072-2.052.18-3.168.18l1.008,4c.072.36.252.9.54.9.108,0,.216-.108.432-.468C16.02.036,16.2,0,17.5-.144c1.224-.144,9.216-1.728,12.456-2.448.432,1.548.648,2.448.864,3.564Zm-17.424-10.8a15.744,15.744,0,0,1-4.644-6.084h4.608v-3.492h-5v-4.212c1.188-.288,2.916-.792,3.852-1.116.18,0,.828.144.936.144.18,0,.252-.18.252-.324a1.149,1.149,0,0,0-.324-.576l-2.772-2.808C11.916-28.188,7.884-27,2.232-26.5L4.14-23.472c1.728-.18,2.556-.324,4.284-.612v3.42H2.484v3.492H7.6A25.7,25.7,0,0,1,1.476-5.616L4.9-3.564A32.241,32.241,0,0,0,8.424-9V1.836h3.888V-11.448A25.376,25.376,0,0,0,14.832-8.5ZM68.688-13.1V-16.92a41.342,41.342,0,0,0-4.752-.216c-1.908,0-3.708.108-5.58.252v3.78a44.121,44.121,0,0,1,5.4-.4A39.124,39.124,0,0,1,68.688-13.1ZM60.552-20.34v-4a28.156,28.156,0,0,1-5.724,2.124c.252-1.008.54-2.3.864-3.924.072-.36.144-.4.612-.612.324-.144.432-.252.432-.5,0-.4-.828-.576-.9-.576l-4.428-1.044a43.717,43.717,0,0,1-1.224,7.632,26.12,26.12,0,0,1-3.564.216A14.525,14.525,0,0,1,43.7-21.24l.288,3.744a47.464,47.464,0,0,0,5.364-.432C46.512-8.172,44.208-4.284,42.048-.792L46.44.54a102.1,102.1,0,0,0,7.416-19.152A43.449,43.449,0,0,0,60.552-20.34ZM69.264.252,68.9-3.924a23.7,23.7,0,0,1-6.336.792C61.74-3.132,59-3.168,58-4.1a1.236,1.236,0,0,1-.432-1.08,6.807,6.807,0,0,1,.144-1.332l-3.564-.756a8.343,8.343,0,0,0-.432,2.592c0,3.672,2.772,5.472,9.252,5.472A34.82,34.82,0,0,0,69.264.252Zm36.144-8.46c0-4.392-3.564-7.272-7.992-7.272-1.476,0-4,.4-7.632,2.772.72-2.376,1.476-5.22,1.764-6.336a42.056,42.056,0,0,0,10.008-2.412V-25.38a31.355,31.355,0,0,1-9.108,2.808c.18-.756,1.044-4.284,1.224-4.968.432-.252.9-.252.9-.648,0-.252-.5-.4-.756-.468l-4.1-.936a57.355,57.355,0,0,1-1.3,7.488c-.576.036-1.188.072-1.872.072a24.124,24.124,0,0,1-5.04-.576l.5,3.816c1.44.144,3.06.144,3.384.144.684,0,1.476,0,2.232-.072a81.735,81.735,0,0,1-2.808,9.468L87.84-6.876c2.736-2.556,5.688-5.22,9-5.22,2.484,0,4.68,1.656,4.68,4.1,0,2.988-3.276,5.9-10.4,5.9a37.645,37.645,0,0,1-4.68-.288l1.188,4.1c4.14-.072,9.576-.252,12.744-1.872A8.922,8.922,0,0,0,105.408-8.208ZM146.3-5.22A28.815,28.815,0,0,0,140.112-8.6a88.441,88.441,0,0,1-.5-9.648,33.633,33.633,0,0,0,4.5-1.008v-3.888a15.718,15.718,0,0,1-4.464,1.476,41.532,41.532,0,0,1,.5-4.464c.36-.216.684-.4.684-.576,0-.216-.108-.4-.864-.5l-4.032-.648c-.072,3.564-.072,3.96-.144,6.66a28.5,28.5,0,0,1-3.348.216,18.739,18.739,0,0,1-3.24-.216l.036,3.708a40.017,40.017,0,0,0,6.516-.288c.072,2.448.18,3.96.468,8.244-.72-.072-1.476-.144-2.2-.144-3.492,0-6.336,1.4-6.336,4.644,0,5.184,6.048,5.184,7.092,5.184,4.9,0,5.616-1.872,5.688-4.644a19.259,19.259,0,0,1,3.78,2.844ZM125.748-8.388,123.48-9.936,122-7.776a35.47,35.47,0,0,1-.18-3.78,91.474,91.474,0,0,1,1.332-11.16,10.291,10.291,0,0,1,.792-2.448,5.538,5.538,0,0,0,.684-.288.312.312,0,0,0,.144-.252c0-.36-.756-.684-.864-.72l-3.492-1.368a68.246,68.246,0,0,0-2.2,16.848A38.728,38.728,0,0,0,119.592.216l3.312-.54A31.618,31.618,0,0,1,125.748-8.388ZM136.44-6.12c.072,1.872.144,2.7-2.232,2.7-2.124,0-3.168-.756-3.168-1.584s1.152-1.44,2.844-1.44A12.383,12.383,0,0,1,136.44-6.12Zm198.036-7.2c0-1.3-.9-5.544-5.616-10.584l-2.988,2.16c1.98,2.268,4,5.868,4,6.984,0,.864-.828.936-2.376,1.08l2.448,3.708C332.244-10.4,334.476-11.268,334.476-13.32ZM325.944-14.9c0-2.2-.4-6.192-5.292-6.192a16.874,16.874,0,0,0-2.844.288c.252-1.368.5-2.628.684-3.924.036-.36.108-.4.756-.792.4-.252.468-.36.468-.5,0-.324-.72-.54-1.008-.576l-4.392-.612a37.266,37.266,0,0,1-.792,7.2c-1.584.252-4.9.864-7.524,1.08l1.44,4.356a45.321,45.321,0,0,1,5.112-1.548c-2.124,6.84-3.96,10.044-7.128,14.076l4.1,1.836a59.674,59.674,0,0,0,7.452-16.776,13.558,13.558,0,0,1,2.052-.18c2.592,0,2.988,1.152,2.988,3.06a21.283,21.283,0,0,1-2.2,8.964,2.214,2.214,0,0,1-2.16.9,10.066,10.066,0,0,1-3.24-.576l.5,4.356a22.771,22.771,0,0,0,3.1.216,5.594,5.594,0,0,0,5.4-2.772C325.332-6.336,325.944-11.916,325.944-14.9Zm36.144-10.26a42.775,42.775,0,0,0-8.6-3.708l-1.548,3.564a34.1,34.1,0,0,1,8.316,3.924Zm6.624,16.056a7.769,7.769,0,0,0-7.992-7.884,13.844,13.844,0,0,0-8.856,3.636,45.994,45.994,0,0,1,2.16-7.92l-4.14-1.62c-.792,2.736-2.52,8.856-2.808,13.752l3.132,1.656c3.708-4.32,7.344-5.76,9.828-5.76,2.7,0,4.536,1.476,4.536,3.78,0,3.312-3.06,6.8-9.756,6.8a36.051,36.051,0,0,1-4.5-.4l1.908,4.428C356.688,1.26,368.712,1.044,368.712-9.108ZM29.376,51.788a29.928,29.928,0,0,0-9.108-4.068c-.108-2.124-.108-2.484-.18-4.284a77.384,77.384,0,0,0,7.7-.9V38.612c-3.312.612-4.644.828-7.776,1.224V35.588c1.8-.036,5.148-.108,9.144-.108l.144-3.816c-3.384.252-4.608.324-9.216.54.036-1.872.072-2.556.072-2.592a1.17,1.17,0,0,1,.468-.648c.4-.324.468-.36.468-.5,0-.252-.216-.36-.9-.432L15.8,27.6l.108,4.788c-3.2.072-5.148.144-9.252.144l.072,3.888c3.1-.36,5.148-.5,9.288-.684l.072,4.5a24.707,24.707,0,0,1-2.484.072c-.612,0-1.368,0-1.368-.5,0-.468.54-.864,1.188-1.332L11.376,36.7c-1.4,1.008-3.852,2.7-3.852,4.464,0,1.4,1.656,2.592,4.968,2.592,1.044,0,3.024-.072,3.672-.108l.072,3.456-1.008-.036c-8.1-.288-8.46,3.888-8.46,4.932,0,2.916,3.1,4.68,8.064,4.68,4.608,0,5.472-1.44,5.616-5.112a27.137,27.137,0,0,1,6.588,3.564Zm-13.1-1.26c.036,2.016-.108,2.664-2.448,2.664-.432,0-2.736,0-2.736-1.224,0-.936,1.152-1.548,3.492-1.548A9.319,9.319,0,0,1,16.272,50.528Zm53.856-11.88a16.608,16.608,0,0,0-2.988-2.736L65.628,37.64a16.666,16.666,0,0,1,2.988,2.736Zm-2.916,3.276a15.7,15.7,0,0,0-2.988-2.772L62.748,40.88A15.983,15.983,0,0,1,65.7,43.652Zm1.188-9.4V28.352c-6.8,2.088-17.964,2.952-25.74,2.88l.612,4.032c3.6-.5,8.892-.936,13.716-1.332A26.842,26.842,0,0,0,52.236,39.4a13.1,13.1,0,0,0-2.448,7.164,9.031,9.031,0,0,0,2.664,6.48c2.916,2.916,6.948,3.672,8.856,4l1.4-4.392a11.338,11.338,0,0,1-6.336-1.836,5.713,5.713,0,0,1-2.592-4.68c0-2.736,1.728-5.976,4.392-8.64C62.748,32.888,66.708,32.636,68.4,32.528Zm39.672,25.344V42.32H90.288V57.908h3.348v-.864h11.088v.828Zm-3.348-9.684h-3.852V45.524h3.852Zm0,5.652h-3.852V51.032h3.852ZM97.2,48.188H93.636V45.524H97.2Zm0,5.652H93.636V51.032H97.2Zm9.792-12.816v-8.64h-14.9v8.64Zm-3.564-2.808h-7.92V35.192h7.92ZM89.5,48.62V31.34H85.32V28.388c0-.288.216-.432.468-.576.216-.144.468-.288.468-.576,0-.252-.216-.4-.864-.432l-3.384-.216V31.34H77.832V51.212h3.024V34.976h1.152V57.944H85.32V48.98l1.08,2.16C88.776,51.14,89.5,50.816,89.5,48.62Zm-3.024-1.8c0,.252,0,.828-.612.828a3.2,3.2,0,0,1-.54-.072v-12.6h1.152Zm22.536-16.2V27.56H90v3.06Zm37.728,3.6v-4h-12.6v-1.8c0-.144.144-.252.4-.36.18-.108.468-.252.468-.54,0-.432-.72-.576-1.224-.612L129.2,26.66v3.564H117.828c.072,1.044.288,3.168.288,6.66,0,10.08-1.512,15.228-4.1,19.692l4.176,1.512c2.88-4.68,3.96-12.06,3.96-18.72V34.22Zm.756,22.32a46.3,46.3,0,0,0-8.28-15.66l-3.6,2.268a60.357,60.357,0,0,1,4.824,7.884c-1.584.288-4.464.792-10.764,1.548,1.26-4,3.24-10.4,4.5-14.4.072-.18.144-.216.648-.5a.872.872,0,0,0,.468-.648c0-.324-.252-.5-1.116-.72l-4.284-1.044a106.272,106.272,0,0,1-4.68,17.748c-2.412.216-2.7.216-3.456.252l.792,4.248c.072.36.18,1.188.756,1.188.216,0,.252-.072.576-.648.288-.468.5-.5,1.08-.576,5.724-.792,11.412-1.764,17.028-3.06a24.307,24.307,0,0,1,1.224,3.96Zm29.232-26.784c0-.36-.684-.9-.756-.972l-3.312-2.556a99.418,99.418,0,0,1-11.52,11.736c-1.188,1.116-2.484,2.448-2.484,4.032a4.214,4.214,0,0,0,1.8,3.168c4.644,4,8.172,7.164,12.42,13.5l3.708-3.456a73.762,73.762,0,0,0-12.168-12.024,1.536,1.536,0,0,1-.612-1.26c0-.684.18-.864,2.556-3.1,3.708-3.456,7.2-6.8,7.956-7.6.936-.936,1.044-1.044,1.476-1.08C176.616,30.044,176.724,30.044,176.724,29.756ZM222.228,47V43.184H208.872V39.728h11.052v-3.78H208.872V31.88c3.708-.5,5.508-.936,6.264-1.08.4-.072,1.188-.252,1.764-.36a3.246,3.246,0,0,0,1.44.5.48.48,0,0,0,.5-.432,1.518,1.518,0,0,0-.4-.756l-2.844-3.6c-5.364,2.376-12.816,2.952-17.64,2.952-2.3,0-3.78-.108-5.112-.18l1.872,3.924c3.708-.036,6.084-.18,9.576-.468v3.564H193.284v3.78H204.3v3.456H191.052V47H204.3v5.184a1.48,1.48,0,0,1-1.656,1.692,16.032,16.032,0,0,1-2.988-.432l1.764,4.464c5.832-.036,7.452-.684,7.452-4.9V47Zm39.132-6.624a27.971,27.971,0,0,0-4.9-2.916V28.64c0-.216.036-.252.576-.792.108-.144.18-.216.18-.36,0-.252-.072-.432-1.188-.5l-3.42-.18v31.1h3.852V41.636a14.8,14.8,0,0,1,2.988,1.944Zm-9.612.756V37.5H247.14v-3.06h3.708V30.908H247.14V28.352c0-.144.036-.18.432-.468.288-.252.324-.324.324-.468,0-.4-.72-.4-1.224-.432l-3.348-.18v4.1H239.94v3.528h3.384V37.5h-4.392v3.636h4.392v3.312h-3.888v3.528h3.888v3.816c-3.96.36-4.644.4-5.652.432l.648,3.456c.036.252.216,1.116.648,1.116.216,0,.216-.036.756-.684a1.37,1.37,0,0,1,.468-.324c.108,0,9.54-1.4,11.34-1.692l.108-3.2c-2.232.252-2.484.288-4.5.5v-3.42h3.852V44.444H247.14V42.572c.576-.144.936-.252.936-.576,0-.36-.54-.5-.936-.576l-1.512-.288Zm-12.96-4.644V32.636h-2.376V28.28c0-.144.108-.288.36-.54.18-.144.324-.288.324-.468,0-.216-.108-.4-1.116-.432l-3.2-.108v5.9h-3.888v3.852h3.888v5.976c-2.088.576-3.24.864-4,1.044L228.96,47c.036.972.144,1.3.5,1.3.216,0,.288-.072.72-.576a.752.752,0,0,1,.36-.288c.324-.144,1.908-.684,2.232-.792v6.228c0,.684,0,.972-1.116.972-.252,0-1.692-.072-1.944-.072l1.3,4c3.456-.036,5.4-.36,5.4-2.2V45.308c1.476-.612,1.656-.684,2.16-.9l.18-3.888c-.756.288-1.224.432-2.34.828v-4.86Zm57.276.648L295.92,33a32.9,32.9,0,0,1-4.9,1.728c-.144-1.8-.324-3.924-.324-4.068-.036-.18-.108-.936-.108-1.116s.072-.324.324-.648c.108-.144.324-.4.324-.54,0-.432-.612-.432-.936-.432l-4.212-.144a63.485,63.485,0,0,1,1.044,7.776,44.994,44.994,0,0,1-5.8.4c-.648,0-1.152,0-2.3-.072l.828,4.14a50.07,50.07,0,0,0,7.452-.54v1.908a17.942,17.942,0,0,1-1.332,7.884,19.936,19.936,0,0,1-3.528,6.012l4.068,2.088c2.016-3.1,4.824-7.416,4.824-16.524,0-.612,0-1.08-.036-2.16A41.165,41.165,0,0,0,296.064,37.136Zm-18.216,9.432-2.7-1.872c-.72,1.62-.936,2.124-1.44,3.456a26.555,26.555,0,0,1-.72-6.8c0-4.932.972-10.98,1.728-11.592.468-.36.576-.432.576-.576,0-.36-.936-.612-1.044-.648l-3.636-1.044a65.27,65.27,0,0,0-1.44,12.78c0,8.82,1.908,13.1,2.88,15.336l3.456-.54A33.215,33.215,0,0,1,277.848,46.568ZM332.676,32.42V28.1c-7.02,2.052-17.784,3.276-26.244,3.348l.72,4.248a137.654,137.654,0,0,1,13.716-1.548c-1.692,1.584-6.984,6.552-6.984,12.708,0,8.028,9,9.9,11.916,10.512l1.26-4.536A10.685,10.685,0,0,1,320.8,51.1a6.168,6.168,0,0,1-2.664-5.04c0-3.6,2.988-7.6,6.156-10.152A13.933,13.933,0,0,1,332.676,32.42ZM372.6,46.82a30.6,30.6,0,0,0-5.9-15.3l-3.708,1.8a33.477,33.477,0,0,1,5.292,14.616Zm-15.876-.54-2.988-2.664c-.684,1.728-2.16,5.544-3.456,5.544-.72,0-2.448-1.3-2.448-8.316a37.318,37.318,0,0,1,.684-8.028c.612-.216,1.044-.36,1.044-.756,0-.432-.576-.612-.828-.684l-3.96-1.08a35.062,35.062,0,0,0-1.08,9.36c0,6.84,1.152,11.052,3.672,13.5a3.926,3.926,0,0,0,2.664,1.188C352.944,54.344,354.744,50.528,356.724,46.28Zm49.932,5.508a29.928,29.928,0,0,0-9.108-4.068c-.108-2.124-.108-2.484-.18-4.284a77.384,77.384,0,0,0,7.7-.9V38.612c-3.312.612-4.644.828-7.776,1.224V35.588c1.8-.036,5.148-.108,9.144-.108l.144-3.816c-3.384.252-4.608.324-9.216.54.036-1.872.072-2.556.072-2.592a1.17,1.17,0,0,1,.468-.648c.4-.324.468-.36.468-.5,0-.252-.216-.36-.9-.432l-4.392-.432.108,4.788c-3.2.072-5.148.144-9.252.144l.072,3.888c3.1-.36,5.148-.5,9.288-.684l.072,4.5a24.707,24.707,0,0,1-2.484.072c-.612,0-1.368,0-1.368-.5,0-.468.54-.864,1.188-1.332L388.656,36.7c-1.4,1.008-3.852,2.7-3.852,4.464,0,1.4,1.656,2.592,4.968,2.592,1.044,0,3.024-.072,3.672-.108l.072,3.456-1.008-.036c-8.1-.288-8.46,3.888-8.46,4.932,0,2.916,3.1,4.68,8.064,4.68,4.608,0,5.472-1.44,5.616-5.112a27.137,27.137,0,0,1,6.588,3.564Zm-13.1-1.26c.036,2.016-.108,2.664-2.448,2.664-.432,0-2.736,0-2.736-1.224,0-.936,1.152-1.548,3.492-1.548A9.319,9.319,0,0,1,393.552,50.528Zm52.992-15.372V31.268c-3.672.288-4.788.4-9.792.684V28.244c0-.144.036-.216.288-.432s.324-.324.324-.54c0-.36-.216-.468-1.044-.5l-4-.252c.216,2.628.216,4.536.252,5.652-7.56.36-10.656.36-13.1.36V36.7c4.572-.576,10.008-.9,13.212-1.08l.072,2.7a4.748,4.748,0,0,0-1.692-.288c-3.672,0-5.652,2.736-5.652,6.7a6.442,6.442,0,0,0,1.872,5,4.533,4.533,0,0,0,2.952,1.116,7.239,7.239,0,0,0,1.944-.36c-.792,2.628-2.988,4.5-5.148,5.9l4.032,2.088a24.976,24.976,0,0,0,4.9-6.7A16.142,16.142,0,0,0,437.8,44.84a9.285,9.285,0,0,0-1.044-4.392v-5.04C441.432,35.228,443.808,35.156,446.544,35.156Zm-13.1,9.108c0,2.556-1.728,3.348-2.484,3.348-.828,0-1.98-.828-1.98-2.988,0-1.908,1.008-3.168,2.448-3.168a1.873,1.873,0,0,1,1.332.5A3.357,3.357,0,0,1,433.44,44.264Z" transform="translate(-1011 369)" fill="#0e376f"/>
    <path id="パス_16" data-name="パス 16" d="M186.192-26.5a28.638,28.638,0,0,0-3.492-3.528L180.864-28.3a27.083,27.083,0,0,1,3.42,3.6Zm-4.356,1.836a24.8,24.8,0,0,0-3.348-3.384l-1.872,1.836A27.707,27.707,0,0,1,180-22.788Zm-.576,3.276H170.748c.216-2.232.288-3.348.324-4.608.036-.468,0-.5.288-.72.5-.4.5-.4.5-.54,0-.432-.684-.54-.828-.54l-4.428-.5c-.036,2.844-.072,4.464-.288,6.912H156.6v4h9.18c-1.656,7.812-5,11.412-10.692,15.048L158.616.432c5-3.2,9.36-7.416,11.556-17.82h6.66c-.144,7.92-1.476,11.268-2.088,12.276a2.349,2.349,0,0,1-2.16,1.152,20.037,20.037,0,0,1-3.6-.432l1.8,4.68c3.888,0,6.444-.216,7.884-3.6C181.08-8.892,181.224-18.216,181.26-21.384ZM220.32-4.32a71.954,71.954,0,0,0-9.54-8.892,43.484,43.484,0,0,0,4.176-8.064,4.987,4.987,0,0,1,1.944-2.16l-2.772-3.06a3.413,3.413,0,0,1-1.872.792H196.74v4.176h13.716a28.776,28.776,0,0,1-6.12,9.828,31.926,31.926,0,0,1-11.484,7.776L196.02-.648A34.751,34.751,0,0,0,208.332-9.9a56.779,56.779,0,0,1,8.784,9Zm40.32-11.3a14.478,14.478,0,0,0-1.26-4.9l-2.412.54a5.817,5.817,0,0,1,.36,1.116c-.216.036-1.548.216-1.836.252.612-.648,3.276-3.672,3.816-4.284.144-.144.432-.108.72-.144.18-.036.288-.072.288-.216,0-.216-.288-.4-.432-.5l-2.448-1.728a25.126,25.126,0,0,1-1.728,2.988,5.167,5.167,0,0,0-.684-.792,42.245,42.245,0,0,0,2.664-3.42,1.02,1.02,0,0,1,.612-.4c.144-.072.216-.144.216-.252,0-.18-.18-.288-.4-.4l-2.592-1.44a21.9,21.9,0,0,1-2.268,3.96c-.252-.288-.4-.432-.9-.972l-1.692,1.872c0-.4.036-2.772.072-2.952,0-.108.252-.252.432-.4.18-.108.324-.216.324-.432,0-.324-.252-.432-1.044-.5l-3.348-.288c0,7.236,0,9.54.18,12.2a17.232,17.232,0,0,0-.972-3.168l-2.34.72a6.343,6.343,0,0,1,.468,1.26c-.288.036-1.62.18-1.872.216,1.656-2.16,3.24-4.572,3.636-5.184a4.724,4.724,0,0,1,.54-.108c.18-.036.252-.108.252-.216,0-.18-.288-.4-.54-.54l-2.34-1.3c-.18.36-1.152,2.124-1.3,2.376a4.648,4.648,0,0,0-.756-.756c.432-.5,2.34-3.312,2.556-3.384.108-.036.36-.072.432-.108.144-.036.216-.108.216-.18,0-.288-.36-.468-.612-.576L242.208-28.8a27.169,27.169,0,0,1-2.016,3.6,6.492,6.492,0,0,0-.72-.648l-1.944,2.124a2.783,2.783,0,0,1,.5.36H235.8V-27.5c0-.108.4-.4.5-.468a.455.455,0,0,0,.252-.36c0-.288-.36-.4-1.116-.432l-3.024-.18v5.58H229v3.276h3.168a24.5,24.5,0,0,1-5,11.448l3.1,1.98a19.941,19.941,0,0,0,2.16-3.42V1.692H235.8V-12.024a7.9,7.9,0,0,0,1.512,2.016l1.872-2.34v2.376h1.044c-.108,3.276-1.368,7.092-4.1,9.432l2.808,1.908a15.861,15.861,0,0,0,3.852-6.948,14.053,14.053,0,0,1,2.736,2.808L247.824-5a17.782,17.782,0,0,0-3.132-3.24L243-6.516a16.1,16.1,0,0,0,.468-3.456H248a19.709,19.709,0,0,0,1.908,5.616,16.965,16.965,0,0,1-6.048,3.492l2.3,2.556a21.1,21.1,0,0,0,5.58-3.348c.864,1.044,2.664,3.2,4.86,3.2.612,0,1.584-.072,3.1-4.464l-2.52-2.052c-.144.5-.684,2.16-1.3,2.16-.5,0-1.26-.9-1.656-1.368A23.422,23.422,0,0,0,256.5-7.2c.18-.324.36-.324.72-.432a.317.317,0,0,0,.288-.324c0-.252-.36-.54-.648-.72l-1.872-1.3h4.68V-13.1h-4.644l1.656-.648a11.493,11.493,0,0,0-1.26-2.268l-2.772,1.188a11.327,11.327,0,0,1,.936,1.728h-2.628a79.348,79.348,0,0,1-.288-10.476,14.636,14.636,0,0,1,3.1,3.384,14.835,14.835,0,0,1-1.476,1.584,5.353,5.353,0,0,1-1.008.108l.648,2.52c.108.432.144.648.324.648.108,0,.288-.288.468-.432.144-.036,4.248-.72,5.04-.9.108.432.288,1.368.324,1.728Zm-6.372,5.652a12.514,12.514,0,0,1-1.872,3.06,12.554,12.554,0,0,1-.972-3.06ZM247.536-13.1h-8.352v.216A12.848,12.848,0,0,1,235.8-17.6v-2.484h2.88v-2.7a26.544,26.544,0,0,1,2.448,2.7l-1.764,2.556c-.468,0-.864,0-1.332-.036l.756,2.412c.144.432.252.756.468.756.144,0,.324-.468.5-.612.36-.072,4.392-.468,5.22-.648.144.828.18.936.216,1.26l2.16-.684C247.428-14.256,247.428-14.076,247.536-13.1Zm50.58,2.844c-4.68-.576-7.056-2.268-8.712-3.888h7.632v-3.276H282.6c.36-.576.468-.684.648-1.008.144-.036,1.3-.324,1.3-.792,0-.36-.612-.5-.792-.54l-3.024-.612V-28.62H269.28v8.676h9.5a12.882,12.882,0,0,1-1.224,2.52h-10.3v3.276h7.7A20.482,20.482,0,0,1,265.5-8.712l2.448,3.24c.54-.216.864-.36,1.548-.648V1.44h3.96V.576h4.032V1.44h3.528V-9.684h-5.292a26.033,26.033,0,0,0,4.5-4.464h3.528a22.113,22.113,0,0,0,5.328,4.5h-5.8V1.44h4.1V.612H290.7V1.44h4V-6.84c.54.18.936.324,1.44.468Zm-3.492-9.684V-28.62H283.572v8.676Zm-4.176-2.664H287.28V-25.74h3.168Zm-13.644,0h-3.6V-25.74h3.6Zm13.9,20.2h-3.312V-6.588H290.7Zm-13.212-.036h-4.032V-6.624h4.032Zm133.092-2.2a29.536,29.536,0,0,1-9.9-9.468,43.766,43.766,0,0,0,7.92-7.776c.18-.144.252-.144.936-.216a.338.338,0,0,0,.36-.324c0-.288-.324-.5-1.044-.9l-3.564-1.908a24.911,24.911,0,0,1-6.48,7.632,18.006,18.006,0,0,1-1.476-6.948v-2.736c0-.144.108-.216.468-.5.324-.324.432-.4.432-.612,0-.432-.36-.468-1.188-.54l-3.744-.324v26.28c0,.936-.756,1.224-1.62,1.224a10.607,10.607,0,0,1-2.592-.36l1.584,4.1c4.644-.036,6.66-.612,6.66-4.572v-9.9c3.132,5.868,7.776,9.4,10.3,11.34ZM392.22-22.212H380.808v3.888h6.912a17.288,17.288,0,0,1-2.232,7.056,23.059,23.059,0,0,1-7.128,7.884l3.708,2.2A22.849,22.849,0,0,0,388.8-9.18,29.221,29.221,0,0,0,392.22-22.212Zm55.764,23.58V-28.368h-30.1V1.368h4.356V.432h21.528v.936Zm-4.212-4.68H422.244V-24.624h21.528Zm-3.06-2.88V-21.2H424.98V-6.192h4.1V-7.308h7.56v1.116Zm-4.068-4.752h-7.56v-6.624h7.56Zm44.172-5.832c0-2.376-.216-5.04-.432-7.56-.036-.36-.216-1.872-.216-2.2s.648-.54.648-.864c0-.468-.648-.468-.756-.468H475.7a93.925,93.925,0,0,1,.9,11.2,21.88,21.88,0,0,1-2.2,9.648A15.889,15.889,0,0,1,469.3-.936l4.284,2.268a24.1,24.1,0,0,0,5.04-7.38A26.554,26.554,0,0,0,480.816-16.776ZM469.26-17.892l-2.52-1.656c-.9,2.016-1.62,3.888-2.088,5.112a8.111,8.111,0,0,1-.252-2.232c0-2.16.576-9.036,1.332-9.648.144-.144.5-.288.5-.54,0-.36-.54-.432-.756-.432l-3.924-.216a68.139,68.139,0,0,0-1.008,10.656,28.381,28.381,0,0,0,1.62,9.792h3.06A83.372,83.372,0,0,1,469.26-17.892Z" transform="translate(-1011 369)" fill="#d95920"/>
  </g>
</svg>
