<svg xmlns="http://www.w3.org/2000/svg" width="444.096" height="84.076" viewBox="0 0 444.096 84.076">
  <g id="グループ_43" data-name="グループ 43" transform="translate(1208.524 -479.408)">
    <path id="パス_21" data-name="パス 21" d="M145.836-13.752c0-8.028-5.9-13.1-13.392-13.1a15.527,15.527,0,0,0-15.876,15.264c0,6.444,5.9,9.684,7.2,9.684,1.872,0,3.528-3.024,4.608-5.256,1.188-2.412,3.312-7.452,4.464-16.02a9.21,9.21,0,0,1,6.12,2.412,8.487,8.487,0,0,1,2.592,6.3,11.263,11.263,0,0,1-2.592,7.164,12.125,12.125,0,0,1-6.48,3.852L135.144.252a17.379,17.379,0,0,0,8.388-6.336A13.451,13.451,0,0,0,145.836-13.752Zm-17.28-8.784c-.72,5.616-3.816,15.012-5.688,15.012-.648,0-2.3-1.512-2.3-4.428a11.79,11.79,0,0,1,3.6-7.992A10.628,10.628,0,0,1,128.556-22.536ZM184.932-4l-3.276-1.44a9,9,0,0,1-.432,2.412,2.118,2.118,0,0,1-1.944,1.332h-5.8c-1.44,0-1.944-.828-1.944-1.656v-8.5l2.232-.72v7.992h3.276V-7.956l1.692,2.7c2.808-.5,4.5-1.368,4.5-3.744v-8.784L181.4-18.72l-4.356,1.3v-2.3c0-.108.072-.144.5-.468.36-.252.432-.4.432-.5,0-.36-.54-.432-.936-.432l-3.276-.108v4.824l-2.232.648v-2.268c0-.108.036-.144.432-.36.4-.252.5-.324.5-.5,0-.4-.5-.432-.936-.468l-1.944-.18a19.973,19.973,0,0,0,1.836-2.808h13v-3.42h-11.34c.108-.216.612-1.332.684-1.4.108-.072.612-.252.684-.324a.391.391,0,0,0,.252-.36c0-.252-.324-.4-.756-.5l-3.672-.864a19.145,19.145,0,0,1-3.636,7.416V-24.48h-4v-3.24c0-.108.216-.252.5-.468a.519.519,0,0,0,.252-.4c0-.36-.612-.432-.864-.468l-4.1-.324v4.9h-5v3.636h3.384c-.072,8.316-.54,15.48-4.644,20.808L155.7,1.656c3.492-4.644,4.248-12.528,4.536-15.588h2.556A51.081,51.081,0,0,1,162-4.284c-.468,2.268-1.152,2.772-2.412,2.772a10.13,10.13,0,0,1-1.944-.252l1.764,3.852c2.124-.072,4.32-.324,5.292-3.24.756-2.376,1.152-9.9,1.332-12.708l.468,3.6,1.512-.5v8.712c0,2.52,1.3,3.708,4.1,3.708h7.848C184.392,1.656,184.716-1.764,184.932-4ZM179.64-9.684A1.124,1.124,0,0,1,178.416-8.5a8.694,8.694,0,0,1-1.368-.144v-4.932l2.592-.828Zm-11.628-5L166-14.076c.036-.792.072-2.16.072-3.348h-5.616c.036-1.4.072-2.2.072-3.42h5.256a12.617,12.617,0,0,1-1.908,1.656L167-16.776a13.08,13.08,0,0,0,1.008-.972ZM221.9-.864V-5H208.836v-17.64h10.872v-4.032H193.572v4.032h10.836V-5h-13.14v4.14ZM259.236-18.5v-7.6h-12.6v-1.224c0-.216.288-.432.36-.468.216-.18.324-.288.324-.432,0-.252-.216-.324-.828-.36l-4.32-.36V-26.1H229.608v7.776h3.708V-22.9h8.712c.072,1.3.072,1.368.072,2.736h-7.164v2.952h7.2v1.8h-9.5v3.1h9.4a10.158,10.158,0,0,1-.324,1.872h-12.1v3.1h10.8c-1.908,2.628-4.176,4.752-11.2,5.652l2.3,3.24a23.859,23.859,0,0,0,7.632-2.52,12.746,12.746,0,0,0,4.968-4.86,17.04,17.04,0,0,0,5.328,4.824,19.349,19.349,0,0,0,7.6,2.7L258.912-1.8a27.263,27.263,0,0,1-8.028-2.556,8.221,8.221,0,0,1-3.348-2.988h11.556v-3.1H245.844c.144-.828.216-1.152.324-1.872h9.792v-3.1h-9.612v-1.8h7.272V-20.16h-7.272V-22.9h9.144V-18.5ZM298.3-1.3a14.293,14.293,0,0,1-5.9-2.34h3.564V-15.8H280.188V-3.636h3.852a12.834,12.834,0,0,1-5.976,2.556l1.944,3.168A26.991,26.991,0,0,0,286.56-.828a2,2,0,0,0,.756.216c.108,0,.4,0,.4-.4a.949.949,0,0,0-.252-.576L285.8-3.636h4.464l-1.3,2.232a25.819,25.819,0,0,0,7.452,3.168Zm-6.12-7.92h-8.244V-10.44h8.244Zm0-3.168h-8.244v-1.152h8.244Zm0,6.372h-8.244v-1.26h8.244Zm5.472-10.944v-2.7h-7.884v-1.3h5.58V-23.58h-5.58v-1.152H297v-2.7h-7.236c0-.576,0-.648.288-.864a.681.681,0,0,0,.252-.5c0-.252-.216-.4-1.116-.432l-3.6-.108v1.908h-7.38v2.7h7.38v1.152H280.08v2.628h5.508v1.3h-7.7v2.412a11.477,11.477,0,0,0-.684-1.26l-2.916,1.152c.324.684.5,1.08.828,1.872-.5.036-1.8.072-2.664.072,1.656-2.376,1.944-2.88,4.752-7.272.18-.288.252-.288,1.008-.36.144-.036.432-.072.432-.432,0-.324-.576-.648-.792-.756l-2.88-1.476a27.689,27.689,0,0,1-2.34,4.428c-.576-.54-.612-.576-1.044-1.008.936-1.368,1.584-2.484,2.412-3.852.324-.576.4-.648,1.008-.72.144-.036.4-.072.4-.4s-.576-.576-.828-.684l-2.844-1.332a32.072,32.072,0,0,1-2.592,4.968c-.18-.144-.9-.72-1.044-.828l-2.16,2.844a46.359,46.359,0,0,1,4.68,4.14c-.36.5-1.044,1.512-1.764,2.628-.756,0-1.08,0-2.448-.036l.216,3.168c.036.612.036,1.188.576,1.188.324,0,.468-.144.864-.54.144-.144.72-.144,1.152-.18.252-.036.972-.072,1.836-.144V1.728h3.636V-12.42c.4-.036,1.188-.144,1.512-.18.18.5.288.9.468,1.548l3.312-1.3a41.367,41.367,0,0,0-1.944-4.608ZM279.4-4.176a28.236,28.236,0,0,1-1.224-6.264l-3.06.684A33.161,33.161,0,0,0,276.3-3.2Zm-8.784-5.616c0-.36-.252-.468-.972-.54l-2.592-.252a32.707,32.707,0,0,1-1.4,8.316l3.276.54a32.839,32.839,0,0,0,1.008-7.056c.036-.324.072-.36.5-.72C270.5-9.576,270.612-9.648,270.612-9.792Zm63.864-3.96c0-8.028-5.9-13.1-13.392-13.1a15.527,15.527,0,0,0-15.876,15.264c0,6.444,5.9,9.684,7.2,9.684,1.872,0,3.528-3.024,4.608-5.256,1.188-2.412,3.312-7.452,4.464-16.02a9.21,9.21,0,0,1,6.12,2.412,8.487,8.487,0,0,1,2.592,6.3A11.263,11.263,0,0,1,327.6-7.308a12.125,12.125,0,0,1-6.48,3.852L323.784.252a17.379,17.379,0,0,0,8.388-6.336A13.451,13.451,0,0,0,334.476-13.752ZM317.2-22.536c-.72,5.616-3.816,15.012-5.688,15.012-.648,0-2.3-1.512-2.3-4.428a11.79,11.79,0,0,1,3.6-7.992A10.628,10.628,0,0,1,317.2-22.536ZM372.708-11.2v-4.968H342.4V-11.2Zm19.116-11.448a23.356,23.356,0,0,1-2.2,5.688h-4.356l1.98-.828a26.905,26.905,0,0,0-2.088-4.86Zm4.932,9.036v-3.348H393.48a12.437,12.437,0,0,0,1.116-2.628c.144-.36.216-.4.72-.54.18-.072.36-.18.36-.4,0-.144-.108-.288-.4-.468l-2.844-1.656h3.852v-3.168h-5.04v-1.944c0-.144.036-.18.54-.54.18-.108.252-.18.252-.36,0-.288-.18-.36-.576-.4l-4.788-.252v3.492h-5.8v3.168h3.384l-2.52,1.08a23.508,23.508,0,0,1,2.052,4.608h-3.96v3.348ZM395.1,1.332v-12.96H381.564V1.584h3.6V.432h6.048v.9ZM391.212-3.24h-6.048V-7.992h6.048Zm19.944-5c0-4.248-2.952-6.948-4.5-8.352,1.332-2.736,1.656-3.384,4.464-9.144l-1.368-1.98H397.908V1.656h3.708v-6.7L404.1-1.368C409.536-1.548,411.156-5.364,411.156-8.244Zm-3.852-.4c0,1.512-1.3,3.168-3.744,3.168-.324,0-1.332-.036-1.944-.108V-24.372h4.1c-.936,3.024-2.232,6.408-2.88,7.992C403.992-15.192,407.3-11.664,407.3-8.64ZM445.572-14l-1.224-4.1c-1.692.756-2.16.972-6.372,2.952a4.825,4.825,0,0,0-4.9-3.636,6.961,6.961,0,0,0-3.1.756c.612-.936.9-1.44,2.052-3.564a75.778,75.778,0,0,0,8.6-1.368L440.892-27a30.4,30.4,0,0,1-7.056,1.836c.18-.4,1.08-2.412,1.116-2.448.036,0,.756-.324.828-.36.216-.072.36-.18.36-.4,0-.252-.612-.324-.72-.36l-4.5-.792a27.915,27.915,0,0,1-1.8,4.788,50.635,50.635,0,0,1-6.876-.144l.432,3.744c1.512,0,2.628-.036,4.68-.144a47.865,47.865,0,0,1-7.092,9.9l3.528,2.2c1.98-3.24,4.14-6.516,7.668-6.516A2.494,2.494,0,0,1,434.2-13.32c-5.4,2.772-8.712,4.464-8.712,8.928a4.922,4.922,0,0,0,1.368,3.528c2.268,2.412,6.444,2.412,8.46,2.412a59.579,59.579,0,0,0,8.568-.54V-3.06a41.623,41.623,0,0,1-9.18,1.152c-2.628,0-5.4-.468-5.4-2.808,0-2.52,3.744-4.392,5.112-5.076-.036,1.584-.072,3.348-.18,5.4h4.176c0-1.224-.072-5.688-.072-7.092C441-12.492,442.728-13.1,445.572-14ZM34.632,25.216a16.677,16.677,0,0,0-3.06-2.952l-1.548,1.62a15.212,15.212,0,0,1,2.952,3.06Zm-2.016,4.1a15.4,15.4,0,0,0-2.988-3.2l-1.548,1.62a14.844,14.844,0,0,1,2.988,3.2Zm-5.544-.4-1.62-2.916a57.2,57.2,0,0,1-8.208.576,63.693,63.693,0,0,1-9.072-.648l1.08,3.96c1.692.108,2.736.144,4.9.144,2.736,0,4-.072,5.544-.18-1.368,1.26-2.808,2.556-3.636,3.276l2.484,2.592C21.492,33.208,24.264,30.868,27.072,28.924Zm1.692,21.384-.252-4.32A50.266,50.266,0,0,1,17.388,47.14c-6.12,0-6.372-1.008-6.372-2.016,0-1.3,1.44-2.556,2.016-3.024L9.9,39.544c-1.08.972-3.492,3.132-3.492,6.372,0,3.636,3.456,5.148,11.592,5.148A87.868,87.868,0,0,0,28.764,50.308ZM70.92,53.584V39.9H54.972V53.476h4.1v-1.26h7.632v1.368Zm-4.212-5.04H59.076V43.576h7.632Zm-12.42-8.5a25.717,25.717,0,0,0-2.016-6.84l-3.2.756a17.249,17.249,0,0,1,.756,2.088c-.684.072-.9.108-2.448.216,2.052-3.168,2.736-4.392,4.536-7.6.108-.216.18-.216.792-.324.144,0,.324-.036.324-.324,0-.36-.468-.648-.756-.792L49.428,25.9c-.972,1.908-1.944,3.672-2.988,5.544a12.91,12.91,0,0,0-.936-.972c.972-1.656,1.908-3.348,2.772-5.076.144-.324.144-.324.828-.576.18-.036.288-.108.288-.288,0-.36-.576-.576-.72-.648L45.684,22.66a31.955,31.955,0,0,1-2.628,5.76c-.288-.18-.72-.5-1.26-.828l-2.016,3.1a26.917,26.917,0,0,1,4.68,4.068c-.324.54-.792,1.3-1.116,1.728-1.368.036-2.3.072-3.384,0l.108,3.42c0,.216.072.792.36.792.108,0,.4-.252.576-.4.216-.18.252-.144,1.332-.252.216-.036,1.8-.216,2.808-.324v14H48.78V39.256c.216,0,1.872-.252,1.908-.252.144.5.252,1.116.36,1.692Zm-.36,8.676a35.6,35.6,0,0,1-1.152-7.092l-3.06.288a38.98,38.98,0,0,0,.792,7.308ZM71.136,23.6H53.568V27.34h5.616c-.288,6.444-4.032,8.676-5.472,9.576l3.024,2.88a13.4,13.4,0,0,0,5.04-6.156,17.942,17.942,0,0,0,1.188-6.3h4.068a23.941,23.941,0,0,1-.612,6.012c-.5,1.764-1.368,1.8-2.124,1.8a15.189,15.189,0,0,1-2.052-.144l1.548,4.248C69.444,39.04,70.92,38.5,71.136,23.6ZM44.784,41.92c0-.288-.216-.36-.864-.432l-3.1-.288a34.222,34.222,0,0,1-1.3,9.216l3.42.72A37.948,37.948,0,0,0,44.1,43.324a1.13,1.13,0,0,1,.432-.972C44.568,42.316,44.784,42.1,44.784,41.92ZM110.052,34.5c-6.3-2.088-11.34-5.832-14-10.44a.317.317,0,0,0,.18-.324c0-.4-.54-.5-.972-.54l-4.968-.468a21.309,21.309,0,0,1-4.68,6.912,23.872,23.872,0,0,1-8.784,5.58l4.032,3.1c3.852-2.088,7.884-4.86,12.456-11.844a32.093,32.093,0,0,0,13.5,11.664Zm-8.46,1.548c0-.4-.756-.468-.864-.468l-4-.324V53.8h4.248V36.988a.627.627,0,0,1,.288-.432A.663.663,0,0,0,101.592,36.052ZM91.044,35.98c0-.36-.252-.4-.972-.468l-3.924-.432c-.036,10.26-.4,13.428-6.084,16.2l3.492,3.2C87.12,52,89.316,49.7,90.036,42.748c.108-.936.18-5.8.252-5.94.108-.108.576-.468.648-.576A.329.329,0,0,0,91.044,35.98Zm53.1,7.236L140.616,40.3c-3.528,6.912-8.352,8.172-10.368,8.172a3.471,3.471,0,0,1-3.168-1.512c-.684-1.224-.684-4.716-.684-6.372a136.066,136.066,0,0,1,1.008-14.4c.576-.468,1.008-.756,1.008-1.044,0-.216-.324-.468-1.188-.576l-4.788-.684c.108,2.412-.18,13.1-.18,15.3,0,8.64.576,10.476,2.268,11.952a8.008,8.008,0,0,0,5.256,1.836,13.013,13.013,0,0,0,7.164-2.3A26.86,26.86,0,0,0,144.144,43.216Zm36.144,4.572a29.928,29.928,0,0,0-9.108-4.068c-.108-2.124-.108-2.484-.18-4.284a77.385,77.385,0,0,0,7.7-.9V34.612c-3.312.612-4.644.828-7.776,1.224V31.588c1.8-.036,5.148-.108,9.144-.108l.144-3.816c-3.384.252-4.608.324-9.216.54.036-1.872.072-2.556.072-2.592a1.17,1.17,0,0,1,.468-.648c.4-.324.468-.36.468-.5,0-.252-.216-.36-.9-.432l-4.392-.432.108,4.788c-3.2.072-5.148.144-9.252.144l.072,3.888c3.1-.36,5.148-.5,9.288-.684l.072,4.5a24.706,24.706,0,0,1-2.484.072c-.612,0-1.368,0-1.368-.5,0-.468.54-.864,1.188-1.332L162.288,32.7c-1.4,1.008-3.852,2.7-3.852,4.464,0,1.4,1.656,2.592,4.968,2.592,1.044,0,3.024-.072,3.672-.108l.072,3.456-1.008-.036c-8.1-.288-8.46,3.888-8.46,4.932,0,2.916,3.1,4.68,8.064,4.68,4.608,0,5.472-1.44,5.616-5.112a27.137,27.137,0,0,1,6.588,3.564Zm-13.1-1.26c.036,2.016-.108,2.664-2.448,2.664-.432,0-2.736,0-2.736-1.224,0-.936,1.152-1.548,3.492-1.548A9.319,9.319,0,0,1,167.184,46.528Zm52.992-15.372V27.268c-3.672.288-4.788.4-9.792.684V24.244c0-.144.036-.216.288-.432s.324-.324.324-.54c0-.36-.216-.468-1.044-.5l-4-.252c.216,2.628.216,4.536.252,5.652-7.56.36-10.656.36-13.1.36V32.7c4.572-.576,10.008-.9,13.212-1.08l.072,2.7a4.748,4.748,0,0,0-1.692-.288c-3.672,0-5.652,2.736-5.652,6.7a6.442,6.442,0,0,0,1.872,5,4.533,4.533,0,0,0,2.952,1.116,7.239,7.239,0,0,0,1.944-.36c-.792,2.628-2.988,4.5-5.148,5.9l4.032,2.088a24.976,24.976,0,0,0,4.9-6.7,16.142,16.142,0,0,0,1.836-6.948,9.285,9.285,0,0,0-1.044-4.392v-5.04C215.064,31.228,217.44,31.156,220.176,31.156Zm-13.1,9.108c0,2.556-1.728,3.348-2.484,3.348-.828,0-1.98-.828-1.98-2.988,0-1.908,1.008-3.168,2.448-3.168a1.873,1.873,0,0,1,1.332.5A3.357,3.357,0,0,1,207.072,40.264Z" transform="translate(-1210 509)" fill="#0e376f"/>
    <path id="パス_20" data-name="パス 20" d="M34.776-.288A63.758,63.758,0,0,0,28.62-15.3l-3.456,1.548A43.578,43.578,0,0,1,28.872-5.94a75.749,75.749,0,0,1-8.1,1.4c1.8-7.236,4.392-19.26,4.464-19.8.324-1.944.4-1.98.828-2.2.216-.108.4-.18.4-.432,0-.216-.252-.36-.864-.5l-3.96-1.008c-1.368,8.892-3.2,18.144-4.68,24.372-.684.072-2.052.18-3.168.18l1.008,4c.072.36.252.9.54.9.108,0,.216-.108.432-.468C16.02.036,16.2,0,17.5-.144c1.224-.144,9.216-1.728,12.456-2.448.432,1.548.648,2.448.864,3.564Zm-17.424-10.8a15.744,15.744,0,0,1-4.644-6.084h4.608v-3.492h-5v-4.212c1.188-.288,2.916-.792,3.852-1.116.18,0,.828.144.936.144.18,0,.252-.18.252-.324a1.149,1.149,0,0,0-.324-.576l-2.772-2.808C11.916-28.188,7.884-27,2.232-26.5L4.14-23.472c1.728-.18,2.556-.324,4.284-.612v3.42H2.484v3.492H7.6A25.7,25.7,0,0,1,1.476-5.616L4.9-3.564A32.241,32.241,0,0,0,8.424-9V1.836h3.888V-11.448A25.376,25.376,0,0,0,14.832-8.5ZM68.688-13.1V-16.92a41.342,41.342,0,0,0-4.752-.216c-1.908,0-3.708.108-5.58.252v3.78a44.121,44.121,0,0,1,5.4-.4A39.124,39.124,0,0,1,68.688-13.1ZM60.552-20.34v-4a28.156,28.156,0,0,1-5.724,2.124c.252-1.008.54-2.3.864-3.924.072-.36.144-.4.612-.612.324-.144.432-.252.432-.5,0-.4-.828-.576-.9-.576l-4.428-1.044a43.717,43.717,0,0,1-1.224,7.632,26.12,26.12,0,0,1-3.564.216A14.525,14.525,0,0,1,43.7-21.24l.288,3.744a47.464,47.464,0,0,0,5.364-.432C46.512-8.172,44.208-4.284,42.048-.792L46.44.54a102.1,102.1,0,0,0,7.416-19.152A43.449,43.449,0,0,0,60.552-20.34ZM69.264.252,68.9-3.924a23.7,23.7,0,0,1-6.336.792C61.74-3.132,59-3.168,58-4.1a1.236,1.236,0,0,1-.432-1.08,6.807,6.807,0,0,1,.144-1.332l-3.564-.756a8.343,8.343,0,0,0-.432,2.592c0,3.672,2.772,5.472,9.252,5.472A34.82,34.82,0,0,0,69.264.252Zm36.144-8.46c0-4.392-3.564-7.272-7.992-7.272-1.476,0-4,.4-7.632,2.772.72-2.376,1.476-5.22,1.764-6.336a42.056,42.056,0,0,0,10.008-2.412V-25.38a31.355,31.355,0,0,1-9.108,2.808c.18-.756,1.044-4.284,1.224-4.968.432-.252.9-.252.9-.648,0-.252-.5-.4-.756-.468l-4.1-.936a57.355,57.355,0,0,1-1.3,7.488c-.576.036-1.188.072-1.872.072a24.124,24.124,0,0,1-5.04-.576l.5,3.816c1.44.144,3.06.144,3.384.144.684,0,1.476,0,2.232-.072a81.735,81.735,0,0,1-2.808,9.468L87.84-6.876c2.736-2.556,5.688-5.22,9-5.22,2.484,0,4.68,1.656,4.68,4.1,0,2.988-3.276,5.9-10.4,5.9a37.645,37.645,0,0,1-4.68-.288l1.188,4.1c4.14-.072,9.576-.252,12.744-1.872A8.922,8.922,0,0,0,105.408-8.208Z" transform="translate(-1210 509)" fill="#d95920"/>
  </g>
</svg>
