<?xml version="1.0" encoding="UTF-8" standalone="no"?>
<!DOCTYPE svg PUBLIC "-//W3C//DTD SVG 1.1//EN" "http://www.w3.org/Graphics/SVG/1.1/DTD/svg11.dtd">
<svg width="100%" height="100%" viewBox="0 0 3500 2800" version="1.1" xmlns="http://www.w3.org/2000/svg" xmlns:xlink="http://www.w3.org/1999/xlink" xml:space="preserve" xmlns:serif="http://www.serif.com/" style="fill-rule:evenodd;clip-rule:evenodd;stroke-linejoin:round;stroke-miterlimit:2;">
    <g transform="matrix(1,0,0,1,-3924.4,-5776.39)">
        <g id="新" transform="matrix(0.609152,0,0,1.11961,4324.68,9480.25)">
            <rect x="-657.101" y="-3308.16" width="5745.69" height="2500.86" style="fill:none;"/>
            <g transform="matrix(0.799229,0,0,0.434839,-484.854,-3245.87)">
                <g transform="matrix(1.12628,0,0,1.12628,191.682,184.203)">
                    <g>
                        <path d="M1641.5,4113.24L1641.5,4185.39L1784.26,4185.39L1784.26,4206.17L1641.5,4206.17L1641.5,4294.2L1611.74,4294.2L1611.74,4092.17L1801.21,4092.17L1801.21,4113.24L1641.5,4113.24Z" style="fill:white;fill-rule:nonzero;"/>
                    </g>
                    <g>
                        <rect x="1962.71" y="4092.18" width="29.758" height="202.029" style="fill:white;"/>
                    </g>
                    <g>
                        <path d="M2240.64,4294.19L2240.64,4113.23L2152.12,4113.23L2152.12,4092.16L2359.29,4092.16L2359.29,4113.23L2270.77,4113.23L2270.77,4294.19L2240.64,4294.19L2240.64,4294.19Z" style="fill:white;fill-rule:nonzero;"/>
                    </g>
                    <g>
                        <path d="M2585.94,4294.19L2585.94,4113.23L2497.42,4113.23L2497.42,4092.16L2704.59,4092.16L2704.59,4113.23L2616.07,4113.23L2616.07,4294.19L2585.94,4294.19L2585.94,4294.19Z" style="fill:white;fill-rule:nonzero;"/>
                    </g>
                    <g>
                        <rect x="2864.2" y="4092.18" width="29.758" height="202.029" style="fill:white;"/>
                    </g>
                    <g>
                        <path d="M3295.4,4092.18L3295.4,4294.21L3271.67,4294.21L3101.41,4128.55L3101.41,4294.21L3072.41,4294.21L3072.41,4092.18L3100.28,4092.18L3266.4,4254.09L3266.4,4092.18L3295.4,4092.18Z" style="fill:white;fill-rule:nonzero;"/>
                    </g>
                    <g>
                        <path d="M3699.52,4266.78C3686.34,4276.02 3670.52,4283.52 3652.43,4289C3633.98,4294.78 3614.39,4297.66 3593.67,4297.66C3566.93,4297.66 3543.2,4293.04 3522.86,4283.81C3502.52,4274.86 3486.7,4262.16 3476.15,4246.29C3465.23,4230.41 3459.58,4212.81 3459.58,4193.47C3459.58,4174.71 3465.23,4157.4 3476.53,4141.52C3487.45,4125.65 3503.27,4112.66 3523.23,4103.14C3543.2,4093.61 3566.18,4088.71 3591.79,4088.71C3612.88,4088.71 3630.96,4091.01 3646.41,4095.34C3661.47,4099.67 3676.17,4106.6 3690.1,4115.55L3670.89,4132.86C3659.59,4125.36 3647.91,4119.59 3635.48,4115.55C3622.68,4111.8 3607.99,4109.77 3590.66,4109.77C3571.45,4109.77 3554.5,4113.53 3539.43,4121.03C3523.99,4128.53 3512.31,4138.64 3503.65,4151.34C3494.98,4164.03 3490.46,4177.89 3490.46,4192.9C3490.46,4209.06 3494.61,4223.49 3503.27,4236.19C3511.93,4249.18 3523.99,4258.99 3539.81,4266.2C3555.63,4273.42 3574.09,4277.17 3594.8,4277.17C3609.12,4277.17 3623.05,4275.15 3636.62,4271.4C3649.8,4267.65 3661.47,4263.03 3670.89,4256.97L3670.89,4206.75L3590.66,4206.75L3590.66,4186.26L3699.52,4186.26L3699.52,4266.78Z" style="fill:white;fill-rule:nonzero;"/>
                    </g>
                    <g>
                        <path d="M3890.74,4142.68C3890.74,4149.32 3892.62,4155.09 3896.77,4159.71C3900.91,4164.33 3908.07,4168.37 3918.24,4172.12C3928.41,4175.87 3943.1,4179.05 3962.31,4182.22C3992.07,4187.13 4013.91,4194.34 4027.85,4203C4041.41,4211.95 4048.19,4224.36 4048.19,4239.65C4048.19,4250.91 4044.43,4261.01 4036.89,4269.67C4028.98,4278.62 4018.43,4285.25 4004.87,4289.87C3990.94,4294.78 3975.49,4297.09 3958.16,4297.09C3937.45,4297.09 3918.24,4294.49 3900.91,4289.01C3883.21,4283.81 3866.63,4275.73 3850.43,4264.76L3868.89,4248.02C3882.83,4257.84 3897.14,4265.05 3911.46,4269.67C3925.39,4274.29 3941.59,4276.6 3959.3,4276.6C3977,4276.6 3990.94,4273.42 4001.86,4266.78C4012.78,4260.43 4018.06,4252.06 4018.06,4241.96C4018.06,4235.32 4016.17,4229.55 4012.41,4224.93C4008.26,4220.61 4001.48,4216.57 3991.69,4212.81C3981.9,4209.35 3967.96,4206.17 3949.5,4203.29C3918.24,4198.09 3895.64,4191.17 3882.08,4182.22C3867.76,4173.56 3860.98,4161.15 3860.98,4144.7C3860.98,4134.02 3864.75,4124.5 3872.28,4116.13C3879.44,4107.76 3889.99,4101.12 3903.17,4096.21C3916.35,4091.6 3931.04,4089.29 3947.62,4089.29C3966.45,4089.29 3983.03,4091.31 3997.72,4095.35C4012.41,4099.39 4026.34,4105.74 4040.28,4114.11L4022.95,4131.71C4010.9,4124.21 3998.85,4118.73 3986.42,4114.97C3973.99,4111.51 3960.8,4109.78 3946.87,4109.78C3929.91,4109.78 3916.35,4112.95 3906.18,4119.01C3896.01,4125.36 3890.74,4133.15 3890.74,4142.68Z" style="fill:white;fill-rule:nonzero;"/>
                    </g>
                </g>
                <g transform="matrix(1.12628,0,0,1.12628,151.646,38.9032)">
                    <g>
                        <path d="M251.564,3532.53L251.564,3934.25L114.348,3934.25L114.348,3302.33L242.536,3302.33L538.635,3691.41L538.635,3302.33L675.851,3302.33L675.851,3934.25L557.592,3934.25L251.564,3532.53Z" style="fill:white;fill-rule:nonzero;"/>
                    </g>
                    <g>
                        <path d="M1240.06,3792.51L972.85,3792.51L915.074,3934.24L773.344,3934.24L1044.17,3297.81L1172.36,3297.81L1443.18,3934.24L1297.84,3934.24L1240.06,3792.51ZM1022.5,3669.74L1190.41,3669.74L1106.45,3464.82L1022.5,3669.74Z" style="fill:white;fill-rule:nonzero;"/>
                    </g>
                    <g>
                        <path d="M2074.19,3844.88C1995.65,3911.68 1905.38,3945.08 1804.27,3945.08C1740.18,3945.08 1682.4,3930.64 1631.85,3902.66C1581.29,3874.67 1541.57,3836.76 1514.49,3787.11C1486.51,3737.45 1472.06,3682.39 1472.06,3620.1L1472.06,3618.29C1472.06,3558.71 1486.51,3503.64 1515.39,3453.99C1543.38,3404.34 1583.1,3364.62 1633.65,3334.83C1684.21,3305.95 1741.08,3291.5 1803.37,3291.5C1858.44,3291.5 1904.48,3298.72 1942.39,3312.26C1980.31,3326.71 2016.41,3348.37 2051.62,3378.16L1964.06,3483.78C1937.88,3461.22 1911.7,3444.97 1887.32,3435.04C1862.95,3425.11 1833.16,3419.69 1798.86,3419.69C1765.45,3419.69 1735.66,3428.72 1707.68,3445.87C1679.69,3463.92 1658.03,3488.3 1641.78,3518.09C1625.53,3547.88 1617.4,3581.28 1617.4,3616.49L1617.4,3618.29C1617.4,3656.21 1625.53,3690.51 1641.78,3721.2C1658.03,3751.9 1680.6,3776.27 1710.39,3792.52C1739.27,3810.58 1771.77,3818.7 1808.79,3818.7C1861.14,3818.7 1904.48,3806.06 1939.68,3780.78L1939.68,3690.51L1799.76,3690.51L1799.76,3570.45L2074.19,3570.45L2074.19,3844.88L2074.19,3844.88Z" style="fill:white;fill-rule:nonzero;"/>
                    </g>
                    <g>
                        <rect x="2214.26" y="3302.34" width="139.022" height="631.917" style="fill:white;"/>
                    </g>
                    <g>
                        <path d="M2967.9,3747.39C2967.9,3808.78 2947.14,3856.62 2904.71,3890.93C2861.38,3926.13 2805.41,3943.28 2735.9,3943.28C2687.15,3943.28 2639.3,3935.16 2593.26,3917.11C2547.22,3899.95 2504.8,3875.58 2467.78,3842.18L2549.93,3743.78C2579.72,3768.15 2610.42,3787.11 2641.11,3800.65C2671.8,3814.19 2704.3,3820.51 2738.6,3820.51C2766.59,3820.51 2789.16,3815.1 2805.41,3804.26C2821.66,3794.33 2829.78,3779.89 2829.78,3760.93L2829.78,3759.13C2829.78,3746.49 2826.17,3735.65 2819.85,3727.53C2813.53,3719.41 2800.89,3711.28 2782.84,3703.16C2763.88,3695.93 2737.7,3687.81 2702.49,3678.78C2654.65,3666.14 2615.83,3652.6 2586.94,3639.06C2557.15,3625.52 2534.59,3606.56 2518.34,3582.19C2501.18,3557.82 2493.06,3526.22 2493.06,3485.6L2493.06,3483.79C2493.06,3445.88 2502.99,3412.47 2521.95,3383.59C2540.91,3355.6 2567.08,3333.03 2600.49,3316.78C2633.89,3301.44 2671.8,3293.31 2714.23,3293.31C2803.6,3293.31 2882.14,3320.39 2948.94,3373.66L2876.72,3478.37C2817.14,3436.85 2762.08,3416.09 2712.43,3416.09C2686.25,3416.09 2666.39,3421.5 2652.84,3431.43C2638.4,3441.36 2631.18,3454.9 2631.18,3471.15L2631.18,3472.96C2631.18,3486.5 2634.79,3498.23 2642.91,3506.36C2650.14,3515.39 2662.77,3523.51 2681.73,3530.73C2700.69,3537.95 2728.67,3546.08 2767.49,3556.01C2836.1,3574.06 2886.65,3596.63 2919.15,3624.62C2951.65,3652.6 2967.9,3693.23 2967.9,3745.59L2967.9,3747.39Z" style="fill:white;fill-rule:nonzero;"/>
                    </g>
                    <g>
                        <path d="M3487.88,3792.51L3220.67,3792.51L3162.89,3934.24L3021.16,3934.24L3291.99,3297.81L3420.17,3297.81L3690.99,3934.24L3545.65,3934.24L3487.88,3792.51L3487.88,3792.51ZM3270.32,3669.74L3438.23,3669.74L3354.28,3464.82L3270.32,3669.74Z" style="fill:white;fill-rule:nonzero;"/>
                    </g>
                    <g>
                        <path d="M4322.01,3844.88C4243.47,3911.68 4153.2,3945.08 4052.09,3945.08C3988,3945.08 3930.22,3930.64 3879.67,3902.66C3829.12,3874.67 3789.39,3836.76 3762.31,3787.11C3734.33,3737.45 3719.88,3682.39 3719.88,3620.1L3719.88,3618.29C3719.88,3558.71 3734.33,3503.64 3763.22,3453.99C3791.2,3404.34 3830.92,3364.62 3881.47,3334.83C3932.03,3305.95 3988.9,3291.5 4051.19,3291.5C4106.26,3291.5 4152.3,3298.72 4190.21,3312.26C4228.12,3326.71 4264.23,3348.37 4299.44,3378.16L4211.88,3483.78C4185.7,3461.22 4159.52,3444.97 4135.14,3435.04C4110.77,3425.11 4080.98,3419.69 4046.68,3419.69C4013.27,3419.69 3983.48,3428.72 3955.5,3445.87C3927.51,3463.92 3905.85,3488.3 3889.6,3518.09C3873.35,3547.88 3865.22,3581.28 3865.22,3616.49L3865.22,3618.29C3865.22,3656.21 3873.35,3690.51 3889.6,3721.2C3905.85,3751.9 3928.42,3776.27 3958.21,3792.52C3987.09,3810.58 4019.59,3818.7 4056.61,3818.7C4108.96,3818.7 4152.3,3806.06 4187.5,3780.78L4187.5,3690.51L4047.58,3690.51L4047.58,3570.45L4322.01,3570.45L4322.01,3844.88Z" style="fill:white;fill-rule:nonzero;"/>
                    </g>
                    <g>
                        <path d="M4868.31,3792.51L4601.1,3792.51L4543.32,3934.24L4401.59,3934.24L4672.41,3297.81L4800.6,3297.81L5071.43,3934.24L4926.08,3934.24L4868.31,3792.51L4868.31,3792.51ZM4650.75,3669.74L4818.66,3669.74L4734.7,3464.82L4650.75,3669.74Z" style="fill:white;fill-rule:nonzero;"/>
                    </g>
                    <g>
                        <path d="M5616.68,3747.39C5616.68,3808.78 5595.92,3856.62 5553.49,3890.93C5510.16,3926.13 5454.19,3943.28 5384.68,3943.28C5335.93,3943.28 5288.08,3935.16 5242.04,3917.11C5196,3899.95 5153.57,3875.58 5116.56,3842.18L5198.71,3743.78C5228.5,3768.15 5259.2,3787.11 5289.89,3800.65C5320.58,3814.19 5353.08,3820.51 5387.38,3820.51C5415.37,3820.51 5437.94,3815.1 5454.19,3804.26C5470.44,3794.33 5478.56,3779.89 5478.56,3760.93L5478.56,3759.13C5478.56,3746.49 5474.95,3735.65 5468.63,3727.53C5462.31,3719.41 5449.67,3711.28 5431.62,3703.16C5412.66,3695.93 5386.48,3687.81 5351.27,3678.78C5303.43,3666.14 5264.61,3652.6 5235.72,3639.06C5205.93,3625.52 5183.36,3606.56 5167.12,3582.19C5149.96,3557.82 5141.84,3526.22 5141.84,3485.6L5141.84,3483.79C5141.84,3445.88 5151.77,3412.47 5170.73,3383.59C5189.68,3355.6 5215.86,3333.03 5249.27,3316.78C5282.67,3301.44 5320.58,3293.31 5363.01,3293.31C5452.38,3293.31 5530.92,3320.39 5597.72,3373.66L5525.5,3478.37C5465.92,3436.85 5410.86,3416.09 5361.2,3416.09C5335.03,3416.09 5315.16,3421.5 5301.62,3431.43C5287.18,3441.36 5279.96,3454.9 5279.96,3471.15L5279.96,3472.96C5279.96,3486.5 5283.57,3498.23 5291.69,3506.36C5298.91,3515.39 5311.55,3523.51 5330.51,3530.73C5349.47,3537.95 5377.45,3546.08 5416.27,3556.01C5484.88,3574.06 5535.43,3596.63 5567.93,3624.62C5600.43,3652.6 5616.68,3693.23 5616.68,3745.59L5616.68,3747.39Z" style="fill:white;fill-rule:nonzero;"/>
                    </g>
                </g>
                <g transform="matrix(1,0,0,1,513.503,338.842)">
                    <path d="M1788,510.964C1956.22,263.834 2240.32,101.338 2562.2,101.338C3078.2,101.338 3497.12,518.919 3497.12,1033.25C3497.12,1084.59 3492.94,1134.96 3484.93,1183.97C3398.48,1846.09 2792.28,2573.65 1788.01,2887.66C783.725,2573.66 177.525,1846.1 91.085,1183.97C83.068,1134.96 78.895,1084.59 78.895,1033.25C78.895,518.919 497.815,101.338 1013.81,101.338C1335.69,101.338 1619.8,263.834 1788.02,510.964L1788,510.964Z" style="fill:white;fill-opacity:0.49;"/>
                    <path d="M3942.99,510.964C4111.21,263.834 4395.32,101.338 4717.2,101.338C5233.19,101.338 5652.11,518.919 5652.11,1033.25C5652.11,1084.59 5647.94,1134.96 5639.91,1183.97C5553.47,1846.09 4947.28,2573.65 3942.99,2887.66C2938.72,2573.66 2332.51,1846.1 2246.08,1183.97C2238.06,1134.96 2233.89,1084.59 2233.89,1033.25C2233.89,518.919 2652.81,101.338 3168.81,101.338C3490.69,101.338 3774.79,263.834 3943.01,510.964L3942.99,510.964Z" style="fill:white;fill-opacity:0.49;"/>
                    <path d="M2224.22,763.363C2374.52,542.566 2628.35,397.385 2915.93,397.385C3376.94,397.385 3751.22,770.47 3751.22,1230.01C3751.22,1275.86 3747.5,1320.87 3740.32,1364.66C3663.09,1956.22 3121.49,2606.26 2224.22,2886.81C1326.95,2606.26 785.363,1956.22 708.103,1364.66C700.94,1320.87 697.221,1275.86 697.221,1230.01C697.221,770.47 1071.5,397.385 1532.51,397.385C1820.09,397.385 2073.92,542.566 2224.22,763.363L2224.22,763.363Z" style="fill:white;fill-opacity:0.49;"/>
                    <path d="M3508.16,764.213C3658.46,543.415 3912.29,398.235 4199.87,398.235C4660.88,398.235 5035.16,771.32 5035.16,1230.85C5035.16,1276.71 5031.44,1321.72 5024.28,1365.51C4947.03,1957.07 4405.43,2607.11 3508.18,2887.66C2610.89,2607.11 2069.3,1957.07 1992.08,1365.51C1984.9,1321.72 1981.18,1276.71 1981.18,1230.85C1981.18,771.32 2355.46,398.235 2816.47,398.235C3104.05,398.235 3357.88,543.415 3508.18,764.213L3508.16,764.213Z" style="fill:white;fill-opacity:0.49;"/>
                    <path d="M2865.51,480.944C3021.4,251.921 3284.68,101.333 3582.98,101.333C4061.17,101.333 4449.39,488.316 4449.39,964.97C4449.39,1012.54 4445.52,1059.21 4438.09,1104.64C4357.98,1718.24 3796.21,2392.49 2865.51,2683.49C1934.81,2392.49 1373.04,1718.24 1292.93,1104.64C1285.5,1059.21 1281.64,1012.54 1281.64,964.97C1281.64,488.316 1669.86,101.333 2148.04,101.333C2446.33,101.333 2709.62,251.921 2865.51,480.944L2865.51,480.944Z" style="fill:white;fill-opacity:0.49;"/>
                    <path d="M2865.51,864.714C2994.24,675.598 3211.65,551.249 3457.97,551.249C3852.84,551.249 4173.41,870.797 4173.41,1264.39C4173.41,1303.68 4170.22,1342.22 4164.09,1379.73C4097.93,1886.42 3634.04,2443.18 2865.51,2683.48C2096.98,2443.18 1633.09,1886.43 1566.93,1379.73C1560.79,1342.22 1557.6,1303.68 1557.6,1264.39C1557.6,870.797 1878.17,551.249 2273.04,551.249C2519.36,551.249 2736.77,675.598 2865.5,864.714L2865.51,864.714Z" style="fill:white;fill-opacity:0.49;"/>
                    <path d="M2865.51,930.2C2983.04,757.534 3181.54,644 3406.43,644C3766.96,644 4059.65,935.755 4059.65,1295.12C4059.65,1330.98 4056.73,1366.17 4051.13,1400.42C3990.73,1863.03 3567.19,2371.36 2865.51,2590.76C2163.83,2371.36 1740.29,1863.03 1679.89,1400.42C1674.29,1366.17 1671.37,1330.98 1671.37,1295.12C1671.37,935.755 1964.06,644 2324.59,644C2549.48,644 2747.97,757.534 2865.51,930.2L2865.51,930.2Z" style="fill:white;fill-opacity:0.49;"/>
                </g>
            </g>
        </g>
    </g>
</svg>
