<svg xmlns="http://www.w3.org/2000/svg" width="155.66" height="53.56" viewBox="0 0 155.66 53.56">
  <g id="グループ_45" data-name="グループ 45" transform="translate(-967.988 -607.368)">
    <path id="パス_22" data-name="パス 22" d="M26.1-25.2V0H21.312L8.748-15.3V0H2.988V-25.2H7.812L20.34-9.9V-25.2ZM54.612-4.68V0H35.1V-25.2H54.144v4.68H40.9v5.472H52.6v4.536H40.9V-4.68Zm45.4-20.52L91.764,0H85.5L79.956-17.064,74.232,0H68l-8.28-25.2h6.048L71.46-7.488,77.4-25.2h5.4L88.56-7.344,94.428-25.2ZM114.552.432a20.618,20.618,0,0,1-5.778-.81,13.551,13.551,0,0,1-4.482-2.106l1.98-4.392a13.436,13.436,0,0,0,3.852,1.908,14.468,14.468,0,0,0,4.464.72,7.132,7.132,0,0,0,3.672-.738,2.23,2.23,0,0,0,1.188-1.962,1.875,1.875,0,0,0-.7-1.494,5.322,5.322,0,0,0-1.8-.954q-1.1-.36-2.97-.792a41.056,41.056,0,0,1-4.716-1.368,7.662,7.662,0,0,1-3.15-2.2,5.93,5.93,0,0,1-1.314-4.032,7.014,7.014,0,0,1,1.188-3.978,7.991,7.991,0,0,1,3.582-2.826,14.617,14.617,0,0,1,5.85-1.044,19.371,19.371,0,0,1,4.716.576,13.932,13.932,0,0,1,4.032,1.656l-1.8,4.428a14.051,14.051,0,0,0-6.984-1.98,6.548,6.548,0,0,0-3.618.792,2.418,2.418,0,0,0-1.17,2.088,2.042,2.042,0,0,0,1.35,1.926,21.2,21.2,0,0,0,4.122,1.242,41.056,41.056,0,0,1,4.716,1.368,7.809,7.809,0,0,1,3.15,2.16,5.791,5.791,0,0,1,1.314,4,6.881,6.881,0,0,1-1.206,3.942A8.1,8.1,0,0,1,120.42-.612,14.749,14.749,0,0,1,114.552.432Z" transform="translate(965 633)" fill="#1b457e"/>
    <path id="パス_23" data-name="パス 23" d="M14.864-11.216a.732.732,0,0,0-.16-.336l-.96-1.152a19.115,19.115,0,0,1-3.76.9,3.2,3.2,0,0,1-.48.032l-.992-.064c.064,1.424.08,2.848.08,4.272a16.149,16.149,0,0,1-.784,5.984A5.584,5.584,0,0,1,6.592.272l1.7.56c1.344-2.064,1.76-3.584,1.936-7.52h1.392V.7H13.28V-6.688h1.44V-8.4H10.256c.016-1.232.032-1.472.016-1.984a27.267,27.267,0,0,0,3.52-.56,4.238,4.238,0,0,1,.7-.144C14.768-11.088,14.864-11.088,14.864-11.216ZM8.08-6.976V-8.448H6.768a9.318,9.318,0,0,0,.64-1.76H7.92v-1.424H5.84v-.624c0-.1.128-.208.16-.24a.314.314,0,0,0,.144-.208c0-.08-.1-.128-.336-.144l-1.76-.16v1.376h-2.5v1.424h.784c.224.576.448,1.424.544,1.76H1.232v1.472h2.7v1.12H1.44v1.52H3.328A8.7,8.7,0,0,1,.784-.992l1.424.928A12.163,12.163,0,0,0,3.936-2.24V.8H5.664V-2.048A3.163,3.163,0,0,0,6.48-1.3L7.5-2.48a10.056,10.056,0,0,1-1.84-1.856H7.792v-1.52H5.664v-1.12ZM5.648-10.208a14.028,14.028,0,0,1-.512,1.76H4.544a15.191,15.191,0,0,0-.56-1.76Zm26.032,3.7v-1.36H25.76V-8.56h4.016V-9.792H25.76v-.624h5.376v-1.312H27.888c.128-.224.24-.448.336-.656.3-.144.432-.208.432-.352,0-.192-.336-.208-.432-.224L26.656-13.1A7.782,7.782,0,0,1,26-11.728H22.416l.928-.3a5.441,5.441,0,0,0-.4-.592c-.192-.256-.336-.448-.416-.544l-1.584.48c.224.32.64.912.672.96H18.5v1.312h5.28v.624H19.76V-8.56h4.016v.688h-5.9v1.36h3.5A8.448,8.448,0,0,1,17.36-2.8l1.328,1.392a10.027,10.027,0,0,0,2.432-1.9V.88H22.8V.544h5.264V.88h1.68v-6.7H23.008a4.456,4.456,0,0,0,.416-.688ZM28.064-2.368H22.8v-.608h5.264Zm0-1.632H22.8v-.608h5.264Zm0,3.28H22.8v-.608h5.264ZM47.44-.352V-6.416h-7.3V.768h1.744v-2.24H45.68v.448c0,.256-.112.416-.464.416a5.917,5.917,0,0,1-.976-.128L44.992.928C46.336.912,47.44.832,47.44-.352ZM45.68-4.528H41.888V-5.12H45.68Zm0,1.84H41.888V-3.36H45.68Zm2.752-4.368V-8.368h-3.76v-.624h2.656v-1.2H44.672v-.64h3.7v-1.216h-3.7a.462.462,0,0,1,.24-.48c.048-.048.112-.1.112-.176,0-.064-.128-.128-.208-.128l-1.952-.144v.928H39.6v1.216h3.264v.64h-2.32v1.2h2.32v.624h-3.44l1.04-.832a5.959,5.959,0,0,0-1.44-1.52l-.656.672V-12c0-.176.16-.256.288-.32.1-.048.224-.1.224-.256,0-.144-.16-.176-.272-.192l-2.016-.224V.768h1.776V-9.616a6.014,6.014,0,0,1,.96,1.264v1.3Zm-11.9-2.7c0-.08-.016-.176-.32-.224l-1.488-.272a15,15,0,0,1-.736,3.728l1.5.432a15.59,15.59,0,0,0,.656-3.376C36.336-9.52,36.528-9.584,36.528-9.76ZM65.648-.352A6.1,6.1,0,0,1,63.84-1.936a18.181,18.181,0,0,0,1.552-4.192l-.656-.832H60.7v-4.016h2.5V-9.36a.391.391,0,0,1-.432.416h-.992l.7,1.6h.72c1.168,0,1.776-.432,1.776-1.84v-3.424H59.008V.784h1.7V-.32L61.9.7A7.6,7.6,0,0,0,62.912-.448,7.629,7.629,0,0,0,64.4.9ZM63.472-5.36a9.855,9.855,0,0,1-.624,1.824,8.022,8.022,0,0,1-.608-1.728l-1.392.784A11.839,11.839,0,0,0,61.9-1.856,6.673,6.673,0,0,1,60.7-.512V-5.36Zm-4.88-2.288v-1.52h-2.72v-.992H58.08v-1.424H55.872v-.608c0-.08.1-.16.256-.288a.217.217,0,0,0,.1-.176.169.169,0,0,0-.192-.16l-1.84-.08v1.312h-2.08v1.424h2.08v.992h-2.8v1.52h1.536l-.4.16a11.156,11.156,0,0,1,.64,1.472H51.7v1.6h2.5v.944H51.92V-1.9h2.272V.768h1.68V-1.9h2.256V-3.472H55.872v-.944h2.48v-1.6h-1.28c.1-.224.224-.512.432-1.056.24-.128.336-.176.336-.288a.174.174,0,0,0-.16-.176l-.544-.112Zm-2.528,0a13.456,13.456,0,0,1-.528,1.632h-1.5l.624-.272a7.179,7.179,0,0,0-.56-1.36Z" transform="translate(1058 660)" fill="#1b457e"/>
  </g>
</svg>
